<svg version="1.1" id="Layer_1" xmlns="http://www.w3.org/2000/svg" xmlns:xlink="http://www.w3.org/1999/xlink" x="0px" y="0px"
	 width="100%" viewBox="0 0 88 88" enable-background="new 0 0 88 88" xml:space="preserve">
<path fill="#160810" opacity="1.000000" stroke="none" 
	d="
M1.000000,56.000000 
	C1.000000,55.555664 1.000000,55.111328 1.464915,54.270306 
	C8.107827,53.873619 14.285823,53.873619 20.555559,53.873619 
	C20.810246,51.533459 21.001888,49.772575 21.592840,48.008728 
	C24.332830,47.674004 26.673512,47.342243 29.158289,47.307770 
	C29.912935,48.528912 30.523485,49.452770 31.074802,50.707756 
	C30.783928,52.334938 30.552284,53.630993 29.981396,55.174232 
	C30.149998,59.684971 30.657846,63.948513 31.130619,68.543976 
	C31.505337,69.558022 31.915131,70.240143 32.132488,71.224228 
	C31.334402,73.253502 30.728750,74.980827 30.204350,76.969597 
	C30.217138,78.232399 30.148674,79.233749 30.080229,80.596420 
	C29.341867,82.294220 28.603489,83.630707 27.572838,84.798508 
	C24.906813,80.513031 21.557785,79.129868 16.821329,80.738419 
	C15.727311,80.377357 14.866638,80.259377 13.539133,80.093643 
	C9.048200,80.030594 5.024100,80.015297 1.000000,80.000000 
	C1.000000,78.611000 1.000000,77.222008 1.394355,75.420502 
	C2.833046,75.080116 3.877383,75.152237 5.109303,75.510635 
	C6.574739,76.117050 7.852592,76.437180 9.504921,76.811287 
	C11.588004,76.526955 13.296610,76.188644 15.182344,76.151382 
	C16.506998,76.564728 17.654520,76.677040 19.214832,76.847908 
	C25.310499,76.675812 27.765280,72.760086 25.763931,66.634621 
	C24.777090,65.720901 23.906183,65.105812 22.776932,64.320366 
	C21.961481,63.371151 21.404377,62.592300 20.739532,61.486771 
	C19.788786,58.353718 18.555328,56.076801 14.668188,57.012695 
	C13.617179,57.345917 12.870020,57.652771 12.024294,57.619659 
	C8.283817,56.853130 4.641909,56.426567 1.000000,56.000000 
z"/>
<path fill="#5192B4" opacity="1.000000" stroke="none" 
	d="
M89.000000,51.000000 
	C89.000000,53.700630 89.000000,56.401260 88.658035,59.671780 
	C84.481041,65.554893 79.419182,61.590561 74.585556,62.028603 
	C73.766678,62.102943 73.299362,62.159531 72.813629,62.231606 
	C72.795204,62.247093 72.747566,62.253975 72.789124,61.885849 
	C73.893456,56.684143 70.796944,53.080418 69.166748,48.673378 
	C67.781448,45.629482 68.114304,44.081657 71.592567,43.965614 
	C72.419456,43.938030 73.205849,42.696346 74.169052,41.734886 
	C76.543289,40.943638 78.759338,40.430618 81.346581,39.941605 
	C82.498718,40.950565 83.279655,41.935516 83.766685,42.986877 
	C82.316162,45.034763 81.159554,47.016232 80.001465,48.998852 
	C80.000000,49.000000 79.997948,49.002674 79.679268,49.031830 
	C78.776962,49.458126 78.193329,49.855270 77.609703,50.252411 
	C77.725075,50.518799 77.840446,50.785187 77.955826,51.051575 
	C79.987373,50.686737 82.018921,50.321899 84.050468,49.957062 
	C84.169754,50.439228 84.289040,50.921394 84.408318,51.403561 
	C82.796303,51.871754 81.184296,52.339947 79.478951,52.835243 
	C80.255424,54.367863 81.014420,55.865982 82.118134,58.044537 
	C83.609436,56.086315 84.570549,54.575363 85.786812,53.309574 
	C86.685600,52.374187 87.916862,51.758259 89.000000,51.000000 
z"/>
<path fill="#130508" opacity="1.000000" stroke="none" 
	d="
M38.000000,1.000000 
	C39.388996,1.000000 40.777996,1.000000 42.741703,1.391431 
	C43.871433,6.518126 44.426453,11.253389 44.659344,16.169197 
	C44.337219,17.444067 44.337219,18.538395 44.337219,19.628971 
	C46.965832,19.747978 49.375084,19.857054 51.750557,20.287165 
	C51.556927,21.446203 51.397076,22.284208 50.954971,23.297396 
	C49.751083,25.032589 48.829449,26.592598 47.689209,28.384544 
	C47.258644,28.601587 47.046684,28.586689 46.597160,28.228024 
	C46.062721,26.274462 45.765854,24.664667 45.468987,23.054871 
	C44.904942,23.119179 44.340897,23.183487 43.776855,23.247793 
	C44.175732,29.830761 44.574612,36.413727 44.743843,43.070374 
	C44.256802,43.351025 44.069218,43.608799 43.801163,44.146889 
	C42.795330,49.268288 41.939785,54.160187 40.926102,58.785538 
	C40.853184,59.592007 40.938408,60.665012 41.094936,62.097847 
	C41.173271,62.946426 41.180305,63.435173 40.852047,63.829605 
	C39.349461,62.488827 38.182167,61.242363 37.008141,59.717392 
	C36.660732,58.956398 36.320057,58.473915 35.670670,57.824104 
	C34.460670,55.029297 33.302963,52.359142 36.613503,50.519505 
	C36.661217,50.614182 36.812916,51.023148 36.660545,51.296463 
	C37.898285,52.291286 39.288395,53.012791 40.678501,53.734295 
	C41.108070,52.422836 41.830929,51.127678 41.904903,49.796459 
	C42.049709,47.190701 41.832539,44.564819 41.813805,41.492393 
	C41.770359,37.682064 41.678303,34.326607 41.662678,30.564526 
	C41.614292,27.583670 41.489479,25.009436 41.460766,22.203484 
	C41.524029,21.807785 41.491192,21.643803 41.583065,21.246098 
	C41.622807,20.680513 41.537830,20.348652 41.533394,19.619942 
	C41.484695,18.439196 41.355465,17.655302 41.330700,16.664955 
	C41.435162,16.458504 41.357433,16.002327 41.526512,15.679525 
	C41.490108,14.234425 41.284626,13.112125 41.054153,11.563249 
	C40.019444,7.757782 39.009724,4.378891 38.000000,1.000000 
z"/>
<path fill="#939292" opacity="1.000000" stroke="none" 
	d="
M21.193529,48.011692 
	C21.001888,49.772575 20.810246,51.533459 20.555559,53.873619 
	C14.285823,53.873619 8.107827,53.873619 1.464915,53.936810 
	C1.000000,47.978848 1.000000,41.957695 1.306224,35.592400 
	C3.093563,36.870426 4.574677,38.492603 6.313043,40.246910 
	C7.534366,42.537457 8.498440,44.695869 9.625385,47.218933 
	C11.734318,46.013237 12.977637,45.302422 14.592706,44.625484 
	C17.040813,45.776806 19.117172,46.894249 21.193529,48.011692 
z"/>
<path fill="#180D14" opacity="1.000000" stroke="none" 
	d="
M89.000000,17.000000 
	C89.000000,18.714375 89.000000,20.428751 88.622849,22.468410 
	C84.495201,22.960684 80.744705,23.127672 76.663818,23.112812 
	C71.281693,20.027132 70.870155,23.945456 69.727661,27.231600 
	C68.697937,27.875675 67.963455,28.511322 67.184906,29.044569 
	C67.140823,28.942169 67.022842,28.752964 66.950401,28.455671 
	C66.112206,27.942158 65.346458,27.725937 64.580704,27.509716 
	C64.757591,28.027874 64.934486,28.546030 65.091667,29.450193 
	C65.229195,33.168266 63.497978,34.435963 60.069321,34.194992 
	C59.525318,34.491764 59.262417,34.748928 58.547073,35.033493 
	C55.972408,35.038307 53.850193,35.015717 51.788506,34.704075 
	C52.075150,33.881840 52.301266,33.348652 52.808731,32.750313 
	C56.101059,31.997181 59.112030,31.309206 62.745632,30.478970 
	C62.813370,29.390743 62.918419,27.703041 62.950439,27.188625 
	C59.642998,26.737692 56.908306,26.364847 54.090435,25.746197 
	C53.964626,25.332764 53.921993,25.165131 53.928696,24.766632 
	C53.978031,24.535763 54.008533,24.064587 54.201107,23.815166 
	C55.542927,22.681927 56.692173,21.798107 58.081604,21.040867 
	C58.548420,21.444851 58.775047,21.722256 58.978348,22.301125 
	C58.862598,23.470039 58.770180,24.337488 58.677761,25.204937 
	C59.037579,25.401890 59.397396,25.598843 59.757214,25.795795 
	C60.808529,24.176588 61.859844,22.557383 62.910446,20.746506 
	C62.909729,20.554838 62.884308,20.171213 63.046135,20.085075 
	C63.299217,19.927145 63.466995,19.855629 63.467255,19.783510 
	C63.468006,19.574242 63.401539,19.364733 63.336330,18.798960 
	C63.379082,17.971817 63.446945,17.501036 63.751995,17.027992 
	C64.306198,17.024668 64.623215,17.022596 65.264236,17.138062 
	C66.819069,17.759943 68.049881,18.263281 69.554947,18.809938 
	C70.191032,18.849857 70.552864,18.846458 71.052811,19.206818 
	C73.129677,19.376078 75.068436,19.181580 77.441338,19.072483 
	C79.870583,18.975168 81.865677,18.792454 84.205429,18.763039 
	C85.729683,18.258835 86.909286,17.601330 88.317734,16.940559 
	C88.546577,16.937298 89.000000,17.000000 89.000000,17.000000 
z"/>
<path fill="#F4F4F2" opacity="1.000000" stroke="none" 
	d="
M89.000000,81.000000 
	C89.000000,83.624184 89.000000,86.248375 89.000000,89.000000 
	C82.646423,89.000000 76.292259,89.000000 69.460594,88.648682 
	C67.388702,87.251274 65.704750,86.316666 64.224899,85.127960 
	C62.722485,83.921143 61.421478,82.463577 60.375977,81.031792 
	C61.185268,80.875816 61.650845,80.803879 62.570869,80.816788 
	C71.683548,80.934425 80.341774,80.967209 89.000000,81.000000 
z"/>
<path fill="#1576AD" opacity="1.000000" stroke="none" 
	d="
M89.000000,66.000000 
	C89.000000,68.370560 89.000000,70.741112 88.741913,73.317223 
	C87.222092,70.525757 87.567627,64.694702 81.734322,69.761810 
	C81.239143,70.191940 80.021118,69.688522 79.345993,70.029190 
	C74.539581,72.454529 69.787064,74.986664 64.683273,77.537132 
	C63.230057,77.549530 62.110966,77.509598 60.946220,77.111954 
	C60.313805,76.136436 59.727036,75.518623 59.259708,74.561317 
	C59.982323,71.862892 60.585495,69.503960 61.491352,67.073257 
	C62.782181,66.018845 63.770325,65.036217 65.069817,64.309692 
	C73.254112,65.043861 81.127052,65.521935 89.000000,66.000000 
z"/>
<path fill="#3A8EC5" opacity="1.000000" stroke="none" 
	d="
M65.017387,77.484810 
	C69.787064,74.986664 74.539581,72.454529 79.345993,70.029190 
	C80.021118,69.688522 81.239143,70.191940 81.734322,69.761810 
	C87.567627,64.694702 87.222092,70.525757 88.741913,73.761383 
	C89.000000,75.066673 89.000000,76.133339 88.532486,77.581512 
	C82.966171,77.870003 77.867371,77.776993 72.542603,77.489815 
	C70.950668,77.376122 69.584694,77.456596 67.820267,77.593246 
	C66.620331,77.594543 65.818863,77.539680 65.017387,77.484810 
z"/>
<path fill="#E5DED2" opacity="1.000000" stroke="none" 
	d="
M27.865110,84.967201 
	C28.603489,83.630707 29.341867,82.294220 30.536747,80.522339 
	C36.374054,80.368195 41.754856,80.649429 47.200954,81.308411 
	C46.086048,82.845779 44.894405,83.994034 43.728760,85.168098 
	C42.473141,86.432793 41.241886,87.721672 40.000000,89.000000 
	C35.975456,89.000000 31.950911,89.000000 27.668732,88.699196 
	C27.562435,87.254662 27.713772,86.110931 27.865110,84.967201 
z"/>
<path fill="#25648A" opacity="1.000000" stroke="none" 
	d="
M6.055791,40.114777 
	C4.574677,38.492603 3.093563,36.870426 1.306224,35.124126 
	C1.000000,31.307091 1.000000,27.614182 1.377802,23.474289 
	C3.525956,22.362350 5.296308,21.697397 7.251126,20.778921 
	C8.615422,20.090847 9.795251,19.656296 11.009079,19.633442 
	C10.406649,25.342611 9.770220,30.640085 8.784197,35.997341 
	C7.641665,37.409676 6.848728,38.762226 6.055791,40.114777 
z"/>
<path fill="#160C14" opacity="1.000000" stroke="none" 
	d="
M1.000000,10.000000 
	C1.000000,7.110352 1.000000,4.220704 1.000000,1.000000 
	C2.327467,1.000000 3.665442,1.000000 5.657352,1.298156 
	C9.179876,5.338964 11.593117,3.210458 14.000000,1.000000 
	C15.066787,1.000000 16.133574,1.000000 17.899429,1.304829 
	C14.784161,4.455718 17.924122,8.500213 16.566183,11.915806 
	C15.850347,12.385622 15.407845,12.756322 14.662233,12.953999 
	C13.099674,10.916566 12.035390,8.854641 10.465999,7.303897 
	C9.972785,6.816545 8.122769,7.702310 6.705456,7.977570 
	C6.517145,7.995546 6.143019,8.051816 5.874998,8.164762 
	C5.361080,8.575480 5.115183,8.873252 4.531211,9.116819 
	C3.402595,9.385740 2.612053,9.708865 1.616164,10.023186 
	C1.410818,10.014380 1.000000,10.000000 1.000000,10.000000 
M3.517483,6.424254 
	C3.517483,6.424254 3.572565,6.525876 3.517483,6.424254 
z"/>
<path fill="#281A22" opacity="1.000000" stroke="none" 
	d="
M12.122861,57.959625 
	C12.870020,57.652771 13.617179,57.345917 14.754645,57.346214 
	C15.505583,58.479156 15.866213,59.304951 16.191309,60.430370 
	C16.731459,61.085114 17.307142,61.440228 18.252151,61.843369 
	C19.363409,61.865410 20.105339,61.839428 20.847271,61.813450 
	C21.404377,62.592300 21.961481,63.371151 22.372311,64.447876 
	C21.105160,64.867683 19.984285,64.989609 18.490654,64.971138 
	C17.064217,64.880501 16.010540,64.930260 14.586518,64.972214 
	C13.474672,64.966064 12.733171,64.967712 11.586088,64.869232 
	C7.787005,66.179398 4.393502,67.589699 1.000000,69.000000 
	C1.000000,66.958336 1.000000,64.916664 1.373900,62.470108 
	C4.931689,62.068512 7.645020,58.655655 11.120275,60.774200 
	C11.454471,59.836010 11.788666,58.897816 12.122861,57.959625 
z"/>
<path fill="#A0D2F0" opacity="1.000000" stroke="none" 
	d="
M82.000000,1.000000 
	C83.714378,1.000000 85.428749,1.000000 87.408333,1.292073 
	C87.179611,3.734240 86.685684,5.884333 85.910194,7.884030 
	C83.643356,5.644884 83.605080,7.379922 82.957008,8.882273 
	C81.582787,12.067956 80.634659,15.838143 76.050598,15.778773 
	C75.688843,14.976954 75.378044,14.478476 75.040436,13.617519 
	C74.708870,11.857652 74.404106,10.460259 74.449265,9.039495 
	C76.226486,7.644455 77.653793,6.272788 79.333206,4.811697 
	C80.063057,4.478095 80.540810,4.233917 81.369774,3.908490 
	C81.813988,2.884827 81.906990,1.942413 82.000000,1.000000 
z"/>
<path fill="#F2F0F1" opacity="1.000000" stroke="none" 
	d="
M49.000000,1.000000 
	C54.022091,1.000000 59.044186,1.000000 64.500244,1.376720 
	C64.955132,2.509110 64.976044,3.264780 64.997787,4.009841 
	C64.998619,3.999232 65.017128,3.988848 64.773560,4.099914 
	C64.402367,4.534042 64.274734,4.857106 64.090385,5.530164 
	C64.019089,6.589419 64.004517,7.298679 63.958878,8.260145 
	C63.949669,8.680344 63.971516,8.848337 63.771805,9.115480 
	C63.338127,9.460439 63.143299,9.719267 62.765690,9.994225 
	C62.565613,9.997333 62.165592,9.985089 62.094093,9.638142 
	C61.673313,7.691553 61.324036,6.091912 61.172977,5.400083 
	C58.755379,5.118874 56.857231,4.898086 54.691162,4.476579 
	C51.033566,4.052940 50.833477,4.271142 51.894173,7.312141 
	C51.506344,8.421873 51.165611,9.202010 50.602276,10.233009 
	C49.289959,11.328791 48.200241,12.173710 46.991058,12.714131 
	C47.233143,9.591758 47.594692,6.773881 48.227165,3.764210 
	C48.665398,2.714943 48.832699,1.857471 49.000000,1.000000 
z"/>
<path fill="#281C22" opacity="1.000000" stroke="none" 
	d="
M27.572838,84.798508 
	C27.713772,86.110931 27.562435,87.254662 27.205547,88.699196 
	C23.307091,89.000000 19.614182,89.000000 15.414055,88.608147 
	C15.622783,85.804695 16.338728,83.393097 17.054672,80.981499 
	C21.557785,79.129868 24.906813,80.513031 27.572838,84.798508 
z"/>
<path fill="#2A2023" opacity="1.000000" stroke="none" 
	d="
M89.000000,65.571533 
	C81.127052,65.521935 73.254112,65.043861 65.221634,63.987679 
	C67.114975,59.639484 70.187149,62.648506 72.747566,62.253975 
	C72.747566,62.253975 72.795204,62.247093 72.953270,62.471767 
	C73.719933,62.467911 74.328537,62.239380 74.937134,62.010853 
	C79.419182,61.590561 84.481041,65.554893 88.658035,60.120834 
	C89.000000,61.714359 89.000000,63.428715 89.000000,65.571533 
z"/>
<path fill="#614B46" opacity="1.000000" stroke="none" 
	d="
M16.821327,80.738419 
	C16.338728,83.393097 15.622783,85.804695 14.953419,88.608147 
	C11.166667,89.000000 7.291738,88.653328 3.512808,89.106750 
	C0.336809,89.487823 1.048076,87.654381 1.388152,85.387611 
	C4.002398,84.402100 6.347323,84.345024 8.420612,83.565491 
	C10.427790,82.810822 12.155503,81.312874 14.005965,80.141396 
	C14.866638,80.259377 15.727311,80.377357 16.821327,80.738419 
z"/>
<path fill="#220709" opacity="1.000000" stroke="none" 
	d="
M72.768562,77.683990 
	C77.867371,77.776993 82.966171,77.870003 88.532486,77.981506 
	C89.000000,78.750000 89.000000,79.500000 89.000000,80.625000 
	C80.341774,80.967209 71.683548,80.934425 62.405159,80.553673 
	C61.520618,79.293694 61.256245,78.381676 60.991871,77.469666 
	C62.110966,77.509598 63.230057,77.549530 64.683273,77.537132 
	C65.818863,77.539680 66.620331,77.594543 68.182617,77.716797 
	C70.218475,77.750778 71.493515,77.717377 72.768562,77.683990 
z"/>
<path fill="#407DA0" opacity="1.000000" stroke="none" 
	d="
M89.000000,50.562500 
	C87.916862,51.758259 86.685600,52.374187 85.786812,53.309574 
	C84.570549,54.575363 83.609436,56.086315 82.118134,58.044537 
	C81.014420,55.865982 80.255424,54.367863 79.478951,52.835243 
	C81.184296,52.339947 82.796303,51.871754 84.408318,51.403561 
	C84.289040,50.921394 84.169754,50.439228 84.050468,49.957062 
	C82.018921,50.321899 79.987373,50.686737 77.955826,51.051575 
	C77.840446,50.785187 77.725075,50.518799 77.609703,50.252411 
	C78.193329,49.855270 78.776962,49.458126 79.734283,49.164680 
	C80.191765,49.314701 80.275536,49.361031 80.359314,49.407356 
	C80.240524,49.270805 80.121735,49.134258 80.002945,48.997704 
	C81.159554,47.016232 82.316162,45.034763 83.757484,43.001362 
	C84.042191,42.949432 84.057602,42.955772 84.063522,43.247887 
	C84.710770,43.673512 85.352089,43.807022 86.369164,43.951492 
	C87.496605,43.974968 88.248306,43.987484 89.000000,44.000000 
	C89.000000,46.041668 89.000000,48.083332 89.000000,50.562500 
z"/>
<path fill="#6E5D58" opacity="1.000000" stroke="none" 
	d="
M40.463184,89.000000 
	C41.241886,87.721672 42.473141,86.432793 43.728760,85.168098 
	C44.894405,83.994034 46.086048,82.845779 47.492931,81.367508 
	C49.802433,80.948753 51.885246,80.848663 54.027115,81.065155 
	C54.119255,81.593513 54.152336,81.805275 54.139244,82.263870 
	C54.062962,82.675392 54.032864,82.840080 53.743690,83.185295 
	C53.357178,84.172379 53.229740,84.978935 53.076439,86.186874 
	C53.033722,87.392174 53.016861,88.196083 53.000000,89.000000 
	C48.975456,89.000000 44.950912,89.000000 40.463184,89.000000 
z"/>
<path fill="#92B3C5" opacity="1.000000" stroke="none" 
	d="
M76.994209,23.294659 
	C80.744705,23.127672 84.495201,22.960684 88.622849,22.896847 
	C89.000000,24.714357 89.000000,26.428717 88.647797,28.582985 
	C87.548515,29.343407 86.801430,29.663916 86.007462,29.924349 
	C85.960579,29.864273 85.820068,29.923317 85.585388,29.813551 
	C84.885475,29.476051 84.420235,29.248320 83.615273,29.028856 
	C82.475784,29.357590 81.676018,29.678053 80.565170,29.998066 
	C79.839317,29.997280 79.424538,29.996943 79.007729,29.610437 
	C78.335197,27.247730 77.664703,25.271194 76.994209,23.294659 
z"/>
<path fill="#ADDEF6" opacity="1.000000" stroke="none" 
	d="
M41.357433,16.002327 
	C41.357433,16.002327 41.435162,16.458504 41.066051,16.546875 
	C39.776726,15.749354 38.856510,14.863463 37.991798,13.617096 
	C37.019890,11.843987 35.992485,10.431353 34.712021,8.790191 
	C33.971619,7.045798 33.484276,5.529934 33.116722,3.715205 
	C33.491009,2.610893 33.745506,1.805447 34.000000,1.000000 
	C35.066669,1.000000 36.133339,1.000000 37.600006,1.000000 
	C39.009724,4.378891 40.019444,7.757782 40.974861,11.899509 
	C41.066181,13.775674 41.211807,14.889000 41.357433,16.002327 
z"/>
<path fill="#828999" opacity="1.000000" stroke="none" 
	d="
M1.000000,69.428467 
	C4.393502,67.589699 7.787005,66.179398 11.469254,65.201721 
	C9.479239,68.831017 7.200480,72.027679 4.921720,75.224350 
	C3.877383,75.152237 2.833046,75.080116 1.394355,75.003998 
	C1.000000,73.285645 1.000000,71.571281 1.000000,69.428467 
z"/>
<path fill="#B5BCC4" opacity="1.000000" stroke="none" 
	d="
M33.550034,1.000000 
	C33.745506,1.805447 33.491009,2.610893 32.716652,3.712750 
	C31.129717,4.008067 30.062647,4.006975 28.940273,3.874287 
	C28.802956,3.696465 28.720940,3.650238 28.638926,3.604011 
	C28.761332,3.734406 28.883738,3.864801 28.998142,4.413485 
	C29.651546,7.209666 30.312950,9.587560 30.947124,12.293217 
	C30.565578,13.416931 30.211260,14.212882 29.516529,14.975752 
	C27.789789,14.310658 26.403460,13.678646 25.006533,12.832122 
	C24.995934,12.617610 24.958319,12.189714 25.022446,11.826005 
	C25.048313,11.219073 25.010052,10.975852 25.029278,10.409853 
	C25.057842,7.058050 25.028921,4.029025 25.000000,1.000000 
	C27.700022,1.000000 30.400042,1.000000 33.550034,1.000000 
z"/>
<path fill="#A5958E" opacity="1.000000" stroke="none" 
	d="
M60.032265,81.115822 
	C61.421478,82.463577 62.722485,83.921143 64.224899,85.127960 
	C65.704750,86.316666 67.388702,87.251274 68.991547,88.648682 
	C64.975456,89.000000 60.950912,89.000000 56.698326,88.819794 
	C56.502708,88.444771 56.535133,88.249947 56.758789,87.750656 
	C57.011364,86.003502 57.072708,84.560814 57.422260,83.004257 
	C58.427399,82.154533 59.144337,81.418686 59.921570,80.784164 
	C59.981873,80.885475 60.032265,81.115822 60.032265,81.115822 
z"/>
<path fill="#5D5B64" opacity="1.000000" stroke="none" 
	d="
M12.024294,57.619659 
	C11.788666,58.897816 11.454471,59.836010 11.120275,60.774200 
	C7.645020,58.655655 4.931689,62.068512 1.373900,62.032608 
	C1.000000,60.285641 1.000000,58.571285 1.000000,56.428463 
	C4.641909,56.426567 8.283817,56.853130 12.024294,57.619659 
z"/>
<path fill="#9FA7AA" opacity="1.000000" stroke="none" 
	d="
M24.971792,10.732630 
	C25.010052,10.975852 25.048313,11.219073 24.603355,11.781130 
	C22.711834,12.081923 21.303528,12.063881 19.511229,12.046785 
	C18.364662,11.970717 17.602091,11.893703 16.839520,11.816688 
	C17.924122,8.500213 14.784161,4.455718 18.299250,1.304829 
	C18.750000,1.000000 19.500000,1.000000 20.629890,1.419182 
	C21.226501,5.294881 20.403290,9.214643 24.971792,10.732630 
z"/>
<path fill="#4C85B3" opacity="1.000000" stroke="none" 
	d="
M86.191750,8.034426 
	C86.685684,5.884333 87.179611,3.734240 87.836769,1.292073 
	C88.333336,4.680550 88.666664,8.361099 88.737442,12.754198 
	C88.346222,14.625773 88.217552,15.784799 88.088882,16.943823 
	C86.909286,17.601330 85.729683,18.258835 84.162811,18.372751 
	C84.580940,14.564251 85.386345,11.299338 86.191750,8.034426 
z"/>
<path fill="#A5CFE1" opacity="1.000000" stroke="none" 
	d="
M47.956238,3.956005 
	C47.594692,6.773881 47.233143,9.591758 46.954704,13.042798 
	C46.352367,14.446858 45.666920,15.217755 44.981468,15.988652 
	C44.426453,11.253389 43.871433,6.518126 43.158207,1.391431 
	C44.066669,1.000000 45.133339,1.000000 46.613121,1.315762 
	C47.336231,2.406351 47.646236,3.181178 47.956238,3.956005 
z"/>
<path fill="#DFDAD3" opacity="1.000000" stroke="none" 
	d="
M13.539131,80.093643 
	C12.155503,81.312874 10.427790,82.810822 8.420612,83.565491 
	C6.347323,84.345024 4.002398,84.402100 1.388152,84.887611 
	C1.000000,83.611107 1.000000,82.222221 1.000000,80.416664 
	C5.024100,80.015297 9.048200,80.030594 13.539131,80.093643 
z"/>
<path fill="#8AAABC" opacity="1.000000" stroke="none" 
	d="
M84.051392,42.934952 
	C83.279655,41.935516 82.498718,40.950565 81.353104,39.508541 
	C81.004280,37.008633 81.020126,34.965797 81.399948,32.972591 
	C82.495842,32.982189 83.227753,32.942158 83.973236,33.179726 
	C83.997581,33.642292 84.008369,33.827263 83.879852,34.309647 
	C85.493698,36.404705 87.246849,38.202351 89.000000,40.000000 
	C89.000000,40.444447 89.000000,40.888889 88.703949,41.801189 
	C87.591156,42.525677 86.774414,42.782310 85.641602,43.009659 
	C84.902893,42.972176 84.480247,42.963974 84.057602,42.955772 
	C84.057602,42.955772 84.042191,42.949432 84.051392,42.934952 
z"/>
<path fill="#CFF5FA" opacity="1.000000" stroke="none" 
	d="
M79.081100,4.901121 
	C77.653793,6.272788 76.226486,7.644455 74.409378,8.820217 
	C74.019585,8.624312 73.991928,8.180687 73.897888,7.804607 
	C73.512993,5.948998 73.222145,4.469469 72.962692,2.659344 
	C72.996056,1.885833 72.998032,1.442917 73.000000,1.000000 
	C74.714355,1.000000 76.428719,1.000000 78.502380,1.387562 
	C78.934830,2.817123 79.007965,3.859122 79.081100,4.901121 
z"/>
<path fill="#E5FCFD" opacity="1.000000" stroke="none" 
	d="
M66.000000,1.000000 
	C67.389000,1.000000 68.777992,1.000000 70.594498,1.241896 
	C71.022011,1.483791 71.132545,1.955302 71.078888,2.213037 
	C71.034538,2.645967 71.043846,2.821163 71.037827,3.368936 
	C70.637260,4.818148 70.252022,5.894784 69.544807,7.016120 
	C67.842598,7.703459 66.462364,8.346096 65.048523,8.713654 
	C64.972954,8.258657 64.930977,8.078739 64.935959,7.552608 
	C64.949867,6.511500 64.916817,5.816607 64.940079,4.841201 
	C65.003296,4.370074 65.010208,4.179461 65.017128,3.988848 
	C65.017128,3.988848 64.998619,3.999232 65.272400,3.809606 
	C65.697456,2.746653 65.848732,1.873327 66.000000,1.000000 
z"/>
<path fill="#1A355D" opacity="1.000000" stroke="none" 
	d="
M7.066659,21.032442 
	C5.296308,21.697397 3.525956,22.362350 1.377802,23.013653 
	C1.000000,20.299986 1.000000,17.599972 1.357671,14.475174 
	C2.432063,14.036705 3.148782,14.023021 4.003481,14.291252 
	C5.116526,16.726259 6.091592,18.879351 7.066659,21.032442 
z"/>
<path fill="#AEBBC0" opacity="1.000000" stroke="none" 
	d="
M25.029278,10.409853 
	C20.403290,9.214643 21.226501,5.294881 21.004890,1.419182 
	C22.066669,1.000000 23.133339,1.000000 24.600004,1.000000 
	C25.028921,4.029025 25.057842,7.058050 25.029278,10.409853 
z"/>
<path fill="#7995A6" opacity="1.000000" stroke="none" 
	d="
M89.000000,39.562500 
	C87.246849,38.202351 85.493698,36.404705 84.235672,34.234779 
	C85.093895,32.549442 85.456978,31.236380 85.820068,29.923317 
	C85.820068,29.923317 85.960579,29.864273 86.312958,30.126858 
	C87.443558,31.259630 88.221779,32.129818 89.000000,33.000000 
	C89.000000,35.041668 89.000000,37.083332 89.000000,39.562500 
z"/>
<path fill="#844E32" opacity="1.000000" stroke="none" 
	d="
M57.134056,83.118134 
	C57.072708,84.560814 57.011364,86.003502 56.436752,87.797501 
	C55.615654,88.432549 55.307827,88.716270 55.000000,89.000000 
	C54.555553,89.000000 54.111111,89.000000 53.333332,89.000000 
	C53.016861,88.196083 53.033722,87.392174 53.322433,86.011414 
	C53.730442,84.624634 53.866604,83.814705 54.002762,83.004768 
	C54.032864,82.840080 54.062962,82.675392 54.439583,82.347733 
	C55.568752,82.495888 56.351402,82.807007 57.134056,83.118134 
z"/>
<path fill="#150C16" opacity="1.000000" stroke="none" 
	d="
M13.555836,1.000000 
	C11.593117,3.210458 9.179876,5.338964 6.155644,1.298156 
	C8.370558,1.000000 10.741115,1.000000 13.555836,1.000000 
z"/>
<path fill="#14060D" opacity="1.000000" stroke="none" 
	d="
M3.865502,14.009337 
	C3.148782,14.023021 2.432063,14.036705 1.357671,14.025194 
	C1.000000,12.933397 1.000000,11.866794 1.000000,10.400095 
	C1.000000,10.000000 1.410818,10.014380 1.900926,10.119596 
	C2.920485,10.490815 3.449936,10.756817 3.987233,11.369797 
	C4.015923,12.179608 4.036767,12.642441 4.008446,13.331049 
	C3.959280,13.556823 3.865502,14.009337 3.865502,14.009337 
z"/>
<path fill="#13070F" opacity="1.000000" stroke="none" 
	d="
M89.000000,32.600006 
	C88.221779,32.129818 87.443558,31.259630 86.359848,30.186935 
	C86.801430,29.663916 87.548515,29.343407 88.647797,29.011448 
	C89.000000,30.066669 89.000000,31.133339 89.000000,32.600006 
z"/>
<path fill="#88ABCA" opacity="1.000000" stroke="none" 
	d="
M79.333206,4.811697 
	C79.007965,3.859122 78.934830,2.817123 78.930847,1.387562 
	C79.444443,1.000000 79.888893,1.000000 80.687828,1.373835 
	C81.034401,2.495025 81.026482,3.242382 81.018562,3.989738 
	C80.540810,4.233917 80.063057,4.478095 79.333206,4.811697 
z"/>
<path fill="#E3E4E4" opacity="1.000000" stroke="none" 
	d="
M48.227165,3.764209 
	C47.646236,3.181178 47.336231,2.406351 47.013115,1.315762 
	C47.444447,1.000000 47.888889,1.000000 48.666668,1.000000 
	C48.832699,1.857471 48.665398,2.714943 48.227165,3.764209 
z"/>
<path fill="#9E9EA8" opacity="1.000000" stroke="none" 
	d="
M88.317734,16.940559 
	C88.217552,15.784799 88.346222,14.625773 88.737442,13.233374 
	C89.000000,14.066669 89.000000,15.133339 89.000000,16.600004 
	C89.000000,17.000000 88.546577,16.937298 88.317734,16.940559 
z"/>
<path fill="#7995A6" opacity="1.000000" stroke="none" 
	d="
M85.957664,43.038940 
	C86.774414,42.782310 87.591156,42.525677 88.703949,42.134521 
	C89.000000,42.444447 89.000000,42.888889 89.000000,43.666668 
	C88.248306,43.987484 87.496605,43.974968 86.361633,43.726311 
	C85.978363,43.490173 85.957664,43.038940 85.957664,43.038940 
z"/>
<path fill="#CEC7D3" opacity="1.000000" stroke="none" 
	d="
M65.750000,1.000000 
	C65.848732,1.873327 65.697456,2.746653 65.271568,3.820214 
	C64.976044,3.264780 64.955132,2.509110 64.967110,1.376720 
	C65.000000,1.000000 65.500000,1.000000 65.750000,1.000000 
z"/>
<path fill="#2A1F32" opacity="1.000000" stroke="none" 
	d="
M81.369774,3.908489 
	C81.026482,3.242382 81.034401,2.495025 81.021164,1.373835 
	C81.000000,1.000000 81.500000,1.000000 81.750000,1.000000 
	C81.906990,1.942413 81.813988,2.884827 81.369774,3.908489 
z"/>
<path fill="#778094" opacity="1.000000" stroke="none" 
	d="
M71.132545,1.955302 
	C71.132545,1.955302 71.022011,1.483791 71.011002,1.241896 
	C71.444496,1.000000 71.889000,1.000000 72.666748,1.000000 
	C72.998032,1.442917 72.996056,1.885833 72.750641,2.629124 
	C72.507195,2.929499 72.079620,2.890684 71.971329,2.690059 
	C71.665604,2.248413 71.422104,2.070369 71.132545,1.955302 
z"/>
<path fill="#5F3930" opacity="1.000000" stroke="none" 
	d="
M55.250000,89.000000 
	C55.307827,88.716270 55.615654,88.432549 56.245522,88.101974 
	C56.535133,88.249947 56.502708,88.444771 56.235138,88.819794 
	C56.000000,89.000000 55.500000,89.000000 55.250000,89.000000 
z"/>
<path fill="#110609" opacity="1.000000" stroke="none" 
	d="
M53.968063,80.748566 
	C51.885246,80.848663 49.802433,80.948753 47.427639,80.989754 
	C41.754856,80.649429 36.374054,80.368195 30.536730,80.161034 
	C30.148674,79.233749 30.217138,78.232399 30.555756,77.036079 
	C31.614569,76.258911 32.403229,75.676704 33.490532,74.933228 
	C33.917820,74.666611 34.032276,74.525108 34.179581,74.467285 
	C34.298267,74.420692 34.536491,74.420547 34.585930,74.492752 
	C36.760536,77.668678 40.041603,77.944290 41.480984,74.945816 
	C42.033852,73.794083 41.974216,72.348328 42.432587,70.787178 
	C43.980145,68.080017 45.155590,65.641617 41.946365,63.629723 
	C43.108006,63.932026 44.025257,64.481613 44.991455,65.301224 
	C45.079327,65.750114 45.118256,65.928978 45.112137,66.552834 
	C45.049984,68.939156 44.793449,70.918633 45.094738,72.809227 
	C45.318783,74.215126 46.265747,75.505806 47.295753,76.890404 
	C49.748417,77.283409 51.796059,77.633820 53.917458,78.221161 
	C53.991222,78.458084 54.125736,78.935799 54.081188,79.236435 
	C54.013783,79.940895 53.990925,80.344734 53.968063,80.748566 
z"/>
<path fill="#271014" opacity="1.000000" stroke="none" 
	d="
M21.592840,48.008728 
	C19.117172,46.894249 17.040813,45.776806 14.840096,44.459953 
	C15.413637,42.935696 16.111540,41.610851 17.027403,39.995796 
	C20.512548,40.131531 23.779732,40.557468 27.346111,41.134396 
	C28.486769,41.560604 29.328232,41.835819 30.134729,42.478199 
	C30.053286,43.338333 30.006809,43.831299 30.021955,44.590260 
	C29.727116,45.574329 29.370653,46.292404 29.014191,47.010483 
	C26.673512,47.342243 24.332830,47.674004 21.592840,48.008728 
z"/>
<path fill="#525463" opacity="1.000000" stroke="none" 
	d="
M18.863411,65.111542 
	C19.984285,64.989609 21.105160,64.867683 22.630653,64.618240 
	C23.906183,65.105812 24.777090,65.720901 25.484589,66.813309 
	C23.148134,70.456871 20.975088,73.623108 18.802044,76.789345 
	C17.654520,76.677040 16.506998,76.564728 15.168184,75.759735 
	C16.272400,71.748543 17.567905,68.430038 18.863411,65.111542 
z"/>
<path fill="#8D6F5A" opacity="1.000000" stroke="none" 
	d="
M36.565792,50.424828 
	C33.302963,52.359142 34.460670,55.029297 35.704556,58.164375 
	C36.122211,59.120007 36.197269,59.568027 36.172268,60.291321 
	C35.787926,61.064327 35.503647,61.562073 35.112068,62.363621 
	C35.053024,63.090366 35.101276,63.513309 35.089355,64.270775 
	C34.780716,65.457977 34.532253,66.310661 34.008240,67.124954 
	C33.549053,67.060509 33.365421,67.034447 33.166992,66.643234 
	C32.406857,64.096596 31.543608,61.946239 30.956587,59.722954 
	C30.548189,58.176178 30.519154,56.529236 30.320641,54.927044 
	C30.552284,53.630993 30.783928,52.334938 31.453903,50.661282 
	C32.652248,50.208672 33.412258,50.133663 34.577156,50.068123 
	C35.509964,50.193333 36.037876,50.309082 36.565792,50.424828 
z"/>
<path fill="#7B8189" opacity="1.000000" stroke="none" 
	d="
M18.490654,64.971130 
	C17.567905,68.430038 16.272400,71.748543 14.991055,75.458694 
	C13.296610,76.188644 11.588004,76.526955 9.541203,76.479691 
	C11.120958,72.389427 13.038910,68.684723 14.956861,64.980026 
	C16.010540,64.930260 17.064217,64.880501 18.490654,64.971130 
z"/>
<path fill="#201C32" opacity="1.000000" stroke="none" 
	d="
M19.214832,76.847908 
	C20.975088,73.623108 23.148134,70.456871 25.600521,67.111946 
	C27.765280,72.760086 25.310499,76.675812 19.214832,76.847908 
z"/>
<path fill="#143A6D" opacity="1.000000" stroke="none" 
	d="
M14.586519,64.972214 
	C13.038910,68.684723 11.120958,72.389427 9.166725,76.425720 
	C7.852592,76.437180 6.574739,76.117050 5.109303,75.510635 
	C7.200480,72.027679 9.479239,68.831017 11.874834,65.301849 
	C12.733171,64.967712 13.474672,64.966064 14.586519,64.972214 
z"/>
<path fill="#331C20" opacity="1.000000" stroke="none" 
	d="
M29.981396,55.174232 
	C30.519154,56.529236 30.548189,58.176178 30.956587,59.722954 
	C31.543608,61.946239 32.406857,64.096596 32.985344,66.888672 
	C32.267555,67.736862 31.716625,67.974464 31.165695,68.212059 
	C30.657846,63.948513 30.149998,59.684971 29.981396,55.174232 
z"/>
<path fill="#070104" opacity="1.000000" stroke="none" 
	d="
M34.172268,50.058659 
	C33.412258,50.133663 32.652248,50.208672 31.513138,50.330154 
	C30.523485,49.452770 29.912935,48.528912 29.158289,47.307770 
	C29.370653,46.292404 29.727116,45.574329 30.424725,44.497883 
	C31.306499,44.056740 31.847130,43.973965 32.252205,44.262466 
	C32.808659,44.775368 33.500675,44.916992 34.303661,45.069157 
	C34.414635,45.079697 34.627113,45.012192 34.645794,45.142284 
	C34.664474,45.272377 34.667545,45.535210 34.459442,45.864967 
	C34.224987,47.482704 34.198627,48.770683 34.172268,50.058659 
z"/>
<path fill="#525862" opacity="1.000000" stroke="none" 
	d="
M16.226843,60.130741 
	C15.866213,59.304951 15.505583,58.479156 15.058496,57.319847 
	C18.555328,56.076801 19.788786,58.353718 20.739532,61.486771 
	C20.105339,61.839428 19.363409,61.865410 18.156727,61.620949 
	C17.203596,60.943916 16.715219,60.537331 16.226843,60.130741 
z"/>
<path fill="#879699" opacity="1.000000" stroke="none" 
	d="
M33.191887,75.094490 
	C32.403229,75.676704 31.614569,76.258911 30.474503,76.774635 
	C30.728750,74.980827 31.334402,73.253502 32.299397,71.272690 
	C32.658741,71.019196 33.004349,71.076370 32.968380,71.402260 
	C33.018902,72.850266 33.105392,73.972374 33.191887,75.094490 
z"/>
<path fill="#A0653C" opacity="1.000000" stroke="none" 
	d="
M33.004349,71.076370 
	C33.004349,71.076370 32.658741,71.019196 32.491833,70.970734 
	C31.915131,70.240143 31.505337,69.558022 31.130619,68.543976 
	C31.716625,67.974464 32.267555,67.736862 33.000137,67.253830 
	C33.365421,67.034447 33.549053,67.060509 34.036961,67.398376 
	C34.293442,68.076080 34.245651,68.441986 33.937958,68.995819 
	C33.518242,69.563828 33.358421,69.943901 33.154808,70.513313 
	C33.111015,70.702644 33.004349,71.076370 33.004349,71.076370 
z"/>
<path fill="#11060F" opacity="1.000000" stroke="none" 
	d="
M74.010872,42.013115 
	C73.205849,42.696346 72.419456,43.938030 71.592567,43.965614 
	C68.114304,44.081657 67.781448,45.629482 68.804916,48.690079 
	C67.338486,48.678009 66.256577,48.272785 65.290070,47.526417 
	C64.773003,46.445953 64.189674,45.129848 63.499260,45.071053 
	C61.024445,44.860279 58.513393,45.075058 55.862762,44.865593 
	C55.148270,44.425976 54.587055,44.249687 53.765244,44.054386 
	C53.330479,44.038570 53.156315,44.041771 52.652775,44.025299 
	C51.883671,43.995968 51.443935,43.986309 50.955368,43.657463 
	C49.547001,42.797504 48.187466,42.256741 46.828724,41.346825 
	C47.279419,39.601021 47.729324,38.224373 48.545895,36.899853 
	C50.592804,37.241596 52.273048,37.531216 54.322334,37.910084 
	C58.126766,38.048866 61.562153,38.098400 65.114044,38.474312 
	C67.488884,39.184177 69.747208,39.567661 72.065994,40.251045 
	C72.754593,41.038338 73.382736,41.525726 74.010872,42.013115 
z"/>
<path fill="#899B9F" opacity="1.000000" stroke="none" 
	d="
M65.174675,47.867561 
	C66.256577,48.272785 67.338486,48.678009 68.782219,49.066532 
	C70.796944,53.080418 73.893456,56.684143 72.789124,61.885849 
	C70.187149,62.648506 67.114975,59.639484 64.910286,63.731575 
	C63.770325,65.036217 62.782181,66.018845 61.423622,66.714668 
	C60.982212,65.949326 60.911221,65.470795 60.907333,64.586197 
	C62.374516,58.742599 63.774593,53.305080 65.174675,47.867561 
z"/>
<path fill="#95B6C5" opacity="1.000000" stroke="none" 
	d="
M74.169052,41.734886 
	C73.382736,41.525726 72.754593,41.038338 72.237671,39.910530 
	C72.583794,37.501945 72.818695,35.733776 73.381027,33.917290 
	C75.475571,32.578178 77.242668,31.287394 79.009766,29.996605 
	C79.424538,29.996943 79.839317,29.997280 80.598091,30.362885 
	C80.973389,31.459757 81.004684,32.191360 81.035980,32.922962 
	C81.020126,34.965797 81.004280,37.008633 80.981911,39.484535 
	C78.759338,40.430618 76.543289,40.943638 74.169052,41.734886 
M77.577583,35.514931 
	C77.577583,35.514931 77.478546,35.571709 77.577583,35.514931 
M75.424171,37.484463 
	C75.424171,37.484463 75.522827,37.428474 75.424171,37.484463 
z"/>
<path fill="#899B9F" opacity="1.000000" stroke="none" 
	d="
M74.585556,62.028603 
	C74.328537,62.239380 73.719933,62.467911 72.971695,62.456280 
	C73.299362,62.159531 73.766678,62.102943 74.585556,62.028603 
z"/>
<path fill="#679DB6" opacity="1.000000" stroke="none" 
	d="
M41.364666,22.435204 
	C41.489479,25.009436 41.614292,27.583670 41.330105,30.467384 
	C39.171299,30.215425 37.421497,29.653982 35.435913,28.934067 
	C34.481823,28.144842 33.763519,27.514093 32.965450,26.648394 
	C32.697628,26.097897 32.419941,25.943037 32.039379,25.751532 
	C32.026131,25.554201 31.970705,25.162169 32.145683,24.957943 
	C31.563408,24.424498 30.806152,24.095280 30.040218,23.479034 
	C29.975060,22.814131 29.918575,22.436251 29.923391,21.708788 
	C31.027752,19.281399 32.070812,17.203592 33.318657,15.123622 
	C33.523441,15.121459 33.923737,15.208194 34.081951,15.517624 
	C36.615002,18.029770 38.989834,20.232487 41.364666,22.435204 
z"/>
<path fill="#341A17" opacity="1.000000" stroke="none" 
	d="
M46.827930,41.715977 
	C48.187466,42.256741 49.547001,42.797504 50.948864,44.037354 
	C50.461334,46.525276 49.931477,48.314114 49.276798,50.524345 
	C50.583515,50.702484 51.759377,50.862782 52.952232,51.343796 
	C52.989960,52.092220 53.010693,52.519936 52.987228,53.293453 
	C52.636734,54.741257 52.330448,55.843250 51.711502,57.051003 
	C50.260685,58.436111 49.122528,59.715466 47.593773,60.943714 
	C43.145382,57.238747 44.686714,52.792614 45.974731,48.763538 
	C46.835190,46.071926 46.614559,44.718777 43.951447,43.917389 
	C44.069218,43.608799 44.256802,43.351025 45.013527,42.972527 
	C45.951214,42.439320 46.389572,42.077648 46.827930,41.715977 
z"/>
<path fill="#52312B" opacity="1.000000" stroke="none" 
	d="
M43.801163,44.146889 
	C46.614559,44.718777 46.835190,46.071926 45.974731,48.763538 
	C44.686714,52.792614 43.145382,57.238747 47.716621,61.220360 
	C48.836494,62.065533 49.442928,62.582954 49.861603,63.323936 
	C48.096733,64.042061 46.519623,64.536629 44.942513,65.031204 
	C44.025257,64.481613 43.108006,63.932026 41.818977,63.639256 
	C41.447208,63.896072 41.187336,63.923923 41.187340,63.923923 
	C41.180305,63.435173 41.173271,62.946426 41.152370,61.866508 
	C41.120415,60.534252 41.102325,59.793167 41.084236,59.052082 
	C41.939785,54.160187 42.795330,49.268288 43.801163,44.146889 
z"/>
<path fill="#ACBABC" opacity="1.000000" stroke="none" 
	d="
M46.828724,41.346825 
	C46.389572,42.077648 45.951214,42.439320 45.243172,42.898842 
	C44.574612,36.413727 44.175732,29.830761 43.776855,23.247793 
	C44.340897,23.183487 44.904942,23.119179 45.468987,23.054871 
	C45.765854,24.664667 46.062721,26.274462 46.601509,28.546963 
	C46.973473,29.830360 47.103519,30.451056 47.148792,31.441565 
	C47.435753,33.490162 47.807487,35.168941 48.179226,36.847725 
	C47.729324,38.224373 47.279419,39.601021 46.828724,41.346825 
z"/>
<path fill="#929596" opacity="1.000000" stroke="none" 
	d="
M35.671696,29.092541 
	C37.421497,29.653982 39.171299,30.215425 41.253674,30.874010 
	C41.678303,34.326607 41.770359,37.682064 41.597073,41.389202 
	C40.594173,41.826965 39.856621,41.913048 39.077431,41.610901 
	C37.914433,37.179298 36.793064,33.135918 35.671696,29.092541 
z"/>
<path fill="#E3E4E4" opacity="1.000000" stroke="none" 
	d="
M44.659348,16.169197 
	C45.666920,15.217755 46.352367,14.446858 47.074173,13.347296 
	C48.200241,12.173710 49.289959,11.328791 50.675865,10.632872 
	C51.278667,12.532874 51.585278,14.283876 51.911522,16.359966 
	C51.967697,17.112759 52.004234,17.540464 51.963692,18.295464 
	C51.852516,19.070549 51.818424,19.518339 51.784332,19.966129 
	C49.375084,19.857054 46.965832,19.747978 44.337219,19.628971 
	C44.337219,18.538395 44.337219,17.444067 44.659348,16.169197 
z"/>
<path fill="#281A21" opacity="1.000000" stroke="none" 
	d="
M40.852043,63.829605 
	C41.187336,63.923923 41.447208,63.896072 41.574593,63.886543 
	C45.155590,65.641617 43.980145,68.080017 42.345158,70.379395 
	C41.551373,68.847275 41.083927,67.473564 40.616482,66.099861 
	C39.231628,66.707855 37.823421,67.269257 36.473129,67.946190 
	C35.913021,68.226990 35.476738,68.754776 34.797157,69.058853 
	C34.610176,68.947464 34.197861,68.807892 34.197861,68.807892 
	C34.245651,68.441986 34.293442,68.076080 34.312511,67.436752 
	C34.532253,66.310661 34.780716,65.457977 35.361031,64.232391 
	C35.995483,63.568855 36.298080,63.278221 36.600681,62.987587 
	C36.140244,62.678329 35.679806,62.369072 35.219368,62.059814 
	C35.503647,61.562073 35.787926,61.064327 36.357719,60.284794 
	C36.643234,60.003002 37.014874,59.995903 37.014874,59.995903 
	C38.182167,61.242363 39.349461,62.488827 40.852043,63.829605 
z"/>
<path fill="#8CC2DF" opacity="1.000000" stroke="none" 
	d="
M41.460766,22.203484 
	C38.989834,20.232487 36.615002,18.029770 34.116135,15.174836 
	C33.993877,14.294331 33.995647,14.066042 34.135750,13.623318 
	C34.573807,13.244686 34.873535,13.080492 35.473045,12.967916 
	C36.493984,13.338881 37.215141,13.658227 37.936295,13.977573 
	C38.856510,14.863463 39.776726,15.749354 40.961590,16.753326 
	C41.355465,17.655302 41.484695,18.439196 41.388073,19.848785 
	C41.260933,20.809593 41.359642,21.144707 41.458351,21.479822 
	C41.491192,21.643803 41.524029,21.807785 41.460766,22.203484 
z"/>
<path fill="#899497" opacity="1.000000" stroke="none" 
	d="
M39.119064,41.999130 
	C39.856621,41.913048 40.594173,41.826965 41.548462,41.844078 
	C41.832539,44.564819 42.049709,47.190701 41.904903,49.796459 
	C41.830929,51.127678 41.108070,52.422836 40.678501,53.734295 
	C39.288395,53.012791 37.898285,52.291286 37.067307,51.277328 
	C38.072739,49.608082 38.519043,48.231297 38.972748,46.453312 
	C39.026451,44.701122 39.072762,43.350124 39.119064,41.999130 
z"/>
<path fill="#84665B" opacity="1.000000" stroke="none" 
	d="
M38.965347,46.854507 
	C38.519043,48.231297 38.072739,49.608082 37.219673,51.004009 
	C36.812916,51.023148 36.661217,50.614182 36.613503,50.519508 
	C36.037876,50.309082 35.509964,50.193333 34.577156,50.068123 
	C34.198627,48.770683 34.224987,47.482704 34.779747,45.999329 
	C35.520969,45.892170 35.733791,45.980415 36.114075,46.370712 
	C37.176140,46.733345 38.070744,46.793926 38.965347,46.854507 
z"/>
<path fill="#92371D" opacity="1.000000" stroke="none" 
	d="
M47.907814,28.152607 
	C48.829449,26.592598 49.751083,25.032589 51.092941,23.442249 
	C51.948483,23.933380 52.383808,24.454842 52.856213,25.193092 
	C52.893291,25.409882 52.920547,25.847851 52.689175,26.066053 
	C51.974480,27.194092 51.491158,28.103928 50.736130,29.125986 
	C49.934628,29.488029 49.404835,29.737850 48.909653,29.673845 
	C48.598782,28.957546 48.253300,28.555077 47.907814,28.152607 
z"/>
<path fill="#983A17" opacity="1.000000" stroke="none" 
	d="
M52.819134,24.976303 
	C52.383808,24.454842 51.948483,23.933380 51.375195,23.267067 
	C51.397076,22.284208 51.556927,21.446203 51.750553,20.287165 
	C51.818424,19.518339 51.852516,19.070549 52.264946,18.309477 
	C53.045231,17.986013 53.447174,17.975832 54.165138,18.007650 
	C54.691624,18.079245 54.902088,18.108843 55.086903,18.339569 
	C55.061256,18.540697 55.050926,18.946079 54.775543,19.147346 
	C54.336285,20.920605 54.172409,22.492596 54.008533,24.064587 
	C54.008533,24.064587 53.978031,24.535763 53.664009,24.746981 
	C53.173035,24.964231 52.996086,24.970266 52.819134,24.976303 
z"/>
<path fill="#D3A15A" opacity="1.000000" stroke="none" 
	d="
M47.689209,28.384544 
	C48.253300,28.555077 48.598782,28.957546 48.682518,29.773924 
	C48.025036,30.482470 47.629299,30.777109 47.233566,31.071751 
	C47.103519,30.451056 46.973473,29.830360 46.839073,28.890728 
	C47.046684,28.586689 47.258644,28.601587 47.689209,28.384544 
z"/>
<path fill="#707F8E" opacity="1.000000" stroke="none" 
	d="
M40.926098,58.785538 
	C41.102325,59.793167 41.120415,60.534252 41.081070,61.506680 
	C40.938408,60.665012 40.853184,59.592007 40.926098,58.785538 
z"/>
<path fill="#679DB6" opacity="1.000000" stroke="none" 
	d="
M41.526512,15.679525 
	C41.211807,14.889000 41.066181,13.775674 40.999847,12.326086 
	C41.284626,13.112125 41.490108,14.234425 41.526512,15.679525 
z"/>
<path fill="#20232E" opacity="1.000000" stroke="none" 
	d="
M37.008141,59.717392 
	C37.014874,59.995903 36.643234,60.003002 36.457783,60.009529 
	C36.197269,59.568027 36.122211,59.120007 36.013268,58.331711 
	C36.320057,58.473915 36.660732,58.956398 37.008141,59.717392 
z"/>
<path fill="#679DB6" opacity="1.000000" stroke="none" 
	d="
M41.583065,21.246098 
	C41.359642,21.144707 41.260933,20.809593 41.307541,20.245636 
	C41.537830,20.348652 41.622807,20.680513 41.583065,21.246098 
z"/>
<path fill="#2D6F92" opacity="1.000000" stroke="none" 
	d="
M16.809441,40.286003 
	C16.111540,41.610851 15.413637,42.935696 14.468346,44.426075 
	C12.977637,45.302422 11.734318,46.013237 9.625385,47.218933 
	C8.498440,44.695869 7.534366,42.537457 6.313042,40.246910 
	C6.848728,38.762226 7.641665,37.409676 9.161713,36.003136 
	C11.616385,35.565678 13.343946,35.182205 15.158003,35.047676 
	C15.497129,35.537643 15.749758,35.778667 16.013611,36.388916 
	C16.286369,37.934097 16.547905,39.110050 16.809441,40.286003 
z"/>
<path fill="#A0BBC6" opacity="1.000000" stroke="none" 
	d="
M79.007729,29.610435 
	C77.242668,31.287394 75.475571,32.578178 73.307182,33.584023 
	C71.944901,31.273771 70.983902,29.248470 70.022903,27.223171 
	C70.870155,23.945456 71.281693,20.027132 76.663818,23.112812 
	C77.664703,25.271194 78.335197,27.247730 79.007729,29.610435 
z"/>
<path fill="#7E220F" opacity="1.000000" stroke="none" 
	d="
M64.997543,38.147930 
	C61.562153,38.098400 58.126766,38.048866 54.269154,37.579918 
	C52.876244,36.766338 51.905552,36.372177 51.002892,35.765781 
	C51.200634,35.262001 51.419655,35.075191 51.727974,34.993126 
	C53.850193,35.015717 55.972408,35.038307 58.811592,34.965340 
	C59.802517,34.631653 60.076469,34.393520 60.350426,34.155388 
	C63.497978,34.435963 65.229195,33.168266 65.412407,29.415590 
	C66.176186,28.914309 66.599510,28.833637 67.022842,28.752964 
	C67.022842,28.752964 67.140823,28.942169 67.315620,29.332733 
	C70.194420,33.577515 66.739479,35.609280 64.997543,38.147930 
z"/>
<path fill="#A2A8AC" opacity="1.000000" stroke="none" 
	d="
M65.114044,38.474312 
	C66.739479,35.609280 70.194420,33.577515 67.359695,29.435135 
	C67.963455,28.511322 68.697937,27.875675 69.727661,27.231598 
	C70.983902,29.248470 71.944901,31.273771 72.979736,33.632339 
	C72.818695,35.733776 72.583794,37.501945 72.177216,39.610626 
	C69.747208,39.567661 67.488884,39.184177 65.114044,38.474312 
z"/>
<path fill="#8BC2E5" opacity="1.000000" stroke="none" 
	d="
M85.910194,7.884030 
	C85.386345,11.299338 84.580940,14.564251 83.818146,18.219450 
	C81.865677,18.792454 79.870583,18.975168 77.317741,18.786966 
	C76.540512,17.638069 76.321037,16.860090 76.101562,16.082111 
	C80.634659,15.838143 81.582787,12.067956 82.957008,8.882273 
	C83.605080,7.379922 83.643356,5.644884 85.910194,7.884030 
z"/>
<path fill="#210F16" opacity="1.000000" stroke="none" 
	d="
M54.173607,25.992001 
	C56.908306,26.364847 59.642998,26.737692 62.950439,27.188625 
	C62.918419,27.703041 62.813370,29.390743 62.745632,30.478970 
	C59.112030,31.309206 56.101059,31.997181 52.896061,32.381313 
	C52.837906,30.821440 52.973774,29.565405 53.372032,28.102419 
	C53.814152,27.260977 53.993881,26.626488 54.173607,25.992001 
M56.566521,28.515610 
	C56.566521,28.515610 56.476185,28.565807 56.566521,28.515610 
z"/>
<path fill="#C2D0D9" opacity="1.000000" stroke="none" 
	d="
M76.050598,15.778772 
	C76.321037,16.860090 76.540512,17.638069 76.883591,18.701565 
	C75.068436,19.181580 73.129677,19.376078 71.118988,18.802929 
	C71.314102,16.683699 71.581161,15.332118 71.896255,13.991152 
	C71.944283,14.001764 72.053131,14.003909 72.121277,14.336176 
	C72.239227,15.525580 72.289024,16.382717 72.409073,18.449198 
	C73.698761,16.280838 74.383003,15.130418 75.067245,13.979997 
	C75.378044,14.478476 75.688843,14.976954 76.050598,15.778772 
z"/>
<path fill="#B96525" opacity="1.000000" stroke="none" 
	d="
M53.109646,28.309372 
	C52.973774,29.565405 52.837906,30.821440 52.614708,32.446472 
	C52.301266,33.348652 52.075150,33.881840 51.788506,34.704075 
	C51.419655,35.075191 51.200634,35.262001 50.735001,35.525925 
	C50.601997,33.336788 50.804920,31.175276 51.007843,29.013763 
	C51.491158,28.103928 51.974480,27.194092 52.724213,26.477299 
	C53.030300,27.216684 53.069973,27.763029 53.109646,28.309372 
z"/>
<path fill="#83BAE1" opacity="1.000000" stroke="none" 
	d="
M71.848221,13.980537 
	C71.581161,15.332118 71.314102,16.683699 70.980873,18.439169 
	C70.552864,18.846458 70.191032,18.849857 69.479042,18.398525 
	C68.976532,16.855095 68.824173,15.766398 68.773857,14.372643 
	C69.214592,13.330336 69.553276,12.593087 70.210587,11.882185 
	C70.742340,11.907340 70.955475,11.906148 71.193954,12.275384 
	C71.428940,13.090721 71.638580,13.535629 71.848221,13.980537 
z"/>
<path fill="#B3A1A5" opacity="1.000000" stroke="none" 
	d="
M68.671814,14.677702 
	C68.824173,15.766398 68.976532,16.855095 69.204788,18.355206 
	C68.049881,18.263281 66.819069,17.759943 65.171951,16.847034 
	C64.219078,16.474070 63.682495,16.510675 63.057289,16.204338 
	C62.934772,15.627704 62.900875,15.394010 63.246773,15.044052 
	C64.410156,15.008487 65.193748,15.089187 66.134125,15.382107 
	C66.793854,15.373606 67.296806,15.152884 68.013718,14.854634 
	C68.227669,14.777105 68.671814,14.677702 68.671814,14.677702 
z"/>
<path fill="#210F16" opacity="1.000000" stroke="none" 
	d="
M62.911163,20.938177 
	C61.859844,22.557383 60.808529,24.176588 59.757214,25.795795 
	C59.397396,25.598843 59.037579,25.401890 58.677761,25.204937 
	C58.770180,24.337488 58.862598,23.470039 59.325241,22.295734 
	C60.767365,21.638645 61.839264,21.288412 62.911163,20.938177 
z"/>
<path fill="#B5692F" opacity="1.000000" stroke="none" 
	d="
M54.201107,23.815166 
	C54.172409,22.492596 54.336285,20.920605 54.944710,19.381996 
	C55.929073,19.583471 56.468887,19.751566 57.274292,19.953409 
	C57.718369,19.986357 57.896851,19.985554 58.026825,20.219643 
	C57.978317,20.454536 57.841415,20.914288 57.841415,20.914288 
	C56.692173,21.798107 55.542927,22.681927 54.201107,23.815166 
z"/>
<path fill="#815858" opacity="1.000000" stroke="none" 
	d="
M62.866982,15.160316 
	C62.900875,15.394010 62.934772,15.627704 63.159203,16.317440 
	C63.349739,16.773483 63.514812,17.030254 63.514809,17.030254 
	C63.446945,17.501036 63.379082,17.971817 62.937973,18.788738 
	C62.037876,19.141176 61.511021,19.147476 60.750389,19.070526 
	C60.516613,18.987274 60.020370,18.995377 60.048141,18.942043 
	C60.075912,18.888712 60.087704,18.769032 60.115395,18.580961 
	C60.143089,18.392891 60.222557,18.020041 60.497963,17.845383 
	C61.167549,16.417555 61.561729,15.164385 62.135643,14.072642 
	C62.315380,14.234070 62.719738,14.498551 62.720020,14.670873 
	C62.720303,14.843194 62.866982,15.160316 62.866982,15.160316 
z"/>
<path fill="#0C0000" opacity="1.000000" stroke="none" 
	d="
M58.081604,21.040867 
	C57.841415,20.914288 57.978317,20.454536 58.258072,20.153584 
	C58.832825,19.664957 58.989624,19.396538 59.279739,18.984156 
	C59.730068,18.870304 59.908886,18.819668 60.087704,18.769032 
	C60.087704,18.769032 60.075912,18.888712 60.054733,19.165760 
	C60.355072,19.633083 60.676586,19.823359 61.314018,20.028114 
	C62.048061,20.085464 62.466187,20.128338 62.884308,20.171213 
	C62.884308,20.171213 62.909729,20.554838 62.910446,20.746510 
	C61.839264,21.288412 60.767365,21.638645 59.348568,21.994270 
	C58.775047,21.722256 58.548420,21.444851 58.081604,21.040867 
z"/>
<path fill="#210F16" opacity="1.000000" stroke="none" 
	d="
M66.950401,28.455673 
	C66.599510,28.833637 66.176186,28.914309 65.432114,29.029583 
	C64.934486,28.546030 64.757591,28.027874 64.580704,27.509716 
	C65.346458,27.725937 66.112206,27.942158 66.950401,28.455673 
z"/>
<path fill="#B5692F" opacity="1.000000" stroke="none" 
	d="
M53.372032,28.102419 
	C53.069973,27.763029 53.030300,27.216684 52.955589,26.259096 
	C52.920547,25.847851 52.893291,25.409882 52.856213,25.193092 
	C52.996086,24.970266 53.173035,24.964231 53.614670,24.977848 
	C53.921993,25.165131 53.964626,25.332764 54.090431,25.746197 
	C53.993881,26.626488 53.814152,27.260977 53.372032,28.102419 
z"/>
<path fill="#210F16" opacity="1.000000" stroke="none" 
	d="
M63.046135,20.085075 
	C62.466187,20.128338 62.048061,20.085464 61.310539,19.813087 
	C60.991142,19.583586 60.984165,19.153776 60.984165,19.153776 
	C61.511021,19.147476 62.037876,19.141176 62.963089,19.145098 
	C63.401539,19.364733 63.468006,19.574242 63.467255,19.783510 
	C63.466995,19.855629 63.299217,19.927145 63.046135,20.085075 
z"/>
<path fill="#210F16" opacity="1.000000" stroke="none" 
	d="
M63.751999,17.027992 
	C63.514812,17.030254 63.349739,16.773483 63.247826,16.660381 
	C63.682495,16.510675 64.219078,16.474070 64.847939,16.728489 
	C64.623215,17.022596 64.306198,17.024668 63.751999,17.027992 
z"/>
<path fill="#210F16" opacity="1.000000" stroke="none" 
	d="
M60.069321,34.194992 
	C60.076469,34.393520 59.802517,34.631653 59.264038,34.937935 
	C59.262417,34.748928 59.525318,34.491764 60.069321,34.194992 
z"/>
<path fill="#7E5D47" opacity="1.000000" stroke="none" 
	d="
M60.946220,77.111954 
	C61.256245,78.381676 61.520618,79.293694 61.950710,80.468819 
	C61.650845,80.803879 61.185268,80.875816 60.375977,81.031792 
	C60.032265,81.115822 59.981873,80.885475 59.698448,80.555695 
	C58.944134,79.130226 58.473248,78.034554 58.003708,76.697861 
	C58.005054,76.456841 58.018982,75.975006 58.254761,75.853653 
	C58.707115,75.455132 58.923691,75.177971 59.140266,74.900810 
	C59.727036,75.518623 60.313805,76.136436 60.946220,77.111954 
z"/>
<path fill="#6D432A" opacity="1.000000" stroke="none" 
	d="
M59.259708,74.561317 
	C58.923691,75.177971 58.707115,75.455132 58.134132,75.677467 
	C57.426311,75.773911 57.074894,75.925179 56.567348,76.075668 
	C56.411221,76.074890 56.100132,76.047867 55.862762,75.929214 
	C55.416759,75.534554 55.208130,75.258553 54.990627,74.543350 
	C54.623974,70.044968 54.266190,65.985786 53.955544,61.605125 
	C54.068333,60.853165 54.133987,60.422680 54.528225,60.045807 
	C56.851280,61.730373 58.845757,63.361320 60.840229,64.992264 
	C60.911221,65.470795 60.982212,65.949326 61.120934,66.786438 
	C60.585495,69.503960 59.982323,71.862892 59.259708,74.561317 
z"/>
<path fill="#1576AD" opacity="1.000000" stroke="none" 
	d="
M72.542603,77.489807 
	C71.493515,77.717377 70.218475,77.750778 68.581078,77.660622 
	C69.584694,77.456596 70.950668,77.376122 72.542603,77.489807 
z"/>
<path fill="#201417" opacity="1.000000" stroke="none" 
	d="
M15.071507,34.798733 
	C13.343946,35.182205 11.616385,35.565678 9.511308,35.943352 
	C9.770220,30.640085 10.406649,25.342611 11.091206,19.344776 
	C11.607120,18.148003 12.074905,17.651592 12.600483,17.510227 
	C14.101093,19.359116 15.543912,20.852962 17.052330,22.612701 
	C17.752111,22.595337 18.386293,22.312075 19.213137,21.927576 
	C19.405800,21.826338 19.835581,21.757338 19.975628,22.084690 
	C20.068909,24.600250 20.022142,26.788460 19.670269,29.026863 
	C18.743494,30.004526 18.121830,30.931990 17.500166,31.859455 
	C17.901163,32.049992 18.302160,32.240532 18.703159,32.431068 
	C19.142889,31.295042 19.582619,30.159016 20.380520,28.976334 
	C22.137163,28.625071 23.535639,28.320463 25.219803,28.196285 
	C25.643805,29.248623 25.782116,30.120529 25.683266,31.014683 
	C25.204285,31.199280 24.962465,31.361629 24.720644,31.523979 
	C25.132046,31.685438 25.543447,31.846899 26.025978,32.193230 
	C26.097107,32.378105 26.196274,32.761662 26.142921,33.133305 
	C26.059771,34.004417 26.029970,34.503883 26.098772,35.210583 
	C26.374098,35.678314 26.607981,35.868526 26.917252,36.321815 
	C26.941530,37.100292 26.947582,37.545395 26.663921,38.037331 
	C26.070793,38.411922 25.767378,38.739681 25.463961,39.067440 
	C25.978779,39.378242 26.493595,39.689045 27.017567,40.245758 
	C27.026720,40.491669 27.046915,40.983406 27.046915,40.983406 
	C23.779732,40.557468 20.512548,40.131531 17.027401,39.995796 
	C16.547905,39.110050 16.286369,37.934097 16.221695,36.234894 
	C16.450441,35.326397 16.482328,34.941147 16.514217,34.555901 
	C16.033312,34.636845 15.552409,34.717789 15.071507,34.798733 
M13.720498,27.487659 
	C13.610564,28.049639 13.500630,28.611616 13.390696,29.173595 
	C13.791377,29.179054 14.192058,29.184513 14.592738,29.189972 
	C14.497412,28.625164 14.402085,28.060358 13.720498,27.487659 
M21.318201,31.286995 
	C21.643343,31.608810 21.968487,31.930626 22.293627,32.252441 
	C22.469316,31.879948 22.645004,31.507456 22.820694,31.134964 
	C22.343784,31.004326 21.866873,30.873686 21.318201,31.286995 
z"/>
<path fill="#8D898A" opacity="1.000000" stroke="none" 
	d="
M12.542690,17.155182 
	C12.074905,17.651592 11.607120,18.148003 11.057207,18.933079 
	C9.795251,19.656296 8.615422,20.090847 7.251127,20.778921 
	C6.091592,18.879351 5.116526,16.726259 4.003481,14.291252 
	C3.865502,14.009337 3.959280,13.556823 4.306511,13.293097 
	C5.116787,12.742724 5.579833,12.456080 6.319461,12.013091 
	C6.697381,11.248027 6.798717,10.639307 7.137396,9.881565 
	C7.214415,9.141560 7.054091,8.550576 6.893767,7.959594 
	C8.122769,7.702310 9.972785,6.816545 10.465999,7.303897 
	C12.035390,8.854641 13.099674,10.916566 14.515217,13.183578 
	C13.961770,14.775847 13.252230,15.965514 12.542690,17.155182 
z"/>
<path fill="#D4A979" opacity="1.000000" stroke="none" 
	d="
M12.600482,17.510227 
	C13.252230,15.965514 13.961770,14.775847 14.818327,13.356601 
	C15.407845,12.756322 15.850347,12.385622 16.566183,11.915806 
	C17.602091,11.893703 18.364662,11.970717 19.786739,12.313190 
	C21.969875,12.734645 23.493504,12.890639 25.017132,13.046635 
	C26.403460,13.678646 27.789789,14.310658 29.323738,15.232801 
	C27.722599,17.679718 25.973839,19.836504 24.042837,22.240644 
	C22.451847,22.613953 22.021173,17.351948 19.835581,21.757338 
	C19.835581,21.757338 19.405800,21.826338 18.856741,21.867723 
	C17.867365,22.055010 17.427048,22.200909 16.986731,22.346807 
	C15.543912,20.852962 14.101093,19.359116 12.600482,17.510227 
z"/>
<path fill="#3D3542" opacity="1.000000" stroke="none" 
	d="
M3.979387,11.022819 
	C3.449936,10.756817 2.920485,10.490815 2.106272,10.128402 
	C2.612053,9.708865 3.402595,9.385740 4.551965,9.422878 
	C4.960214,10.191780 5.009633,10.600419 4.789027,11.003925 
	C4.339130,11.006801 4.159259,11.014810 3.979387,11.022819 
z"/>
<path fill="#140A0F" opacity="1.000000" stroke="none" 
	d="
M5.059052,11.009059 
	C5.009633,10.600419 4.960214,10.191780 4.890039,9.477082 
	C5.115183,8.873252 5.361080,8.575480 5.844211,8.448550 
	C6.354314,9.089790 6.627184,9.560189 6.900053,10.030587 
	C6.798717,10.639307 6.697381,11.248027 6.231135,11.761571 
	C5.597168,11.447283 5.328110,11.228171 5.059052,11.009059 
z"/>
<path fill="#7F7374" opacity="1.000000" stroke="none" 
	d="
M7.137396,9.881565 
	C6.627184,9.560189 6.354314,9.089790 6.112232,8.335604 
	C6.143019,8.051816 6.517145,7.995546 6.705456,7.977570 
	C7.054091,8.550576 7.214415,9.141560 7.137396,9.881565 
z"/>
<path fill="#261D29" opacity="1.000000" stroke="none" 
	d="
M3.545024,6.475065 
	C3.572565,6.525876 3.517483,6.424254 3.545024,6.475065 
z"/>
<path fill="#677176" opacity="1.000000" stroke="none" 
	d="
M16.191309,60.430370 
	C16.715219,60.537331 17.203596,60.943916 17.787399,61.572922 
	C17.307142,61.440228 16.731459,61.085114 16.191309,60.430370 
z"/>
<path fill="#E6F5F9" opacity="1.000000" stroke="none" 
	d="
M75.040436,13.617519 
	C74.383003,15.130418 73.698761,16.280838 72.409073,18.449198 
	C72.289024,16.382717 72.239227,15.525580 72.171387,14.092558 
	C72.202690,13.179519 72.165268,12.852284 72.288986,12.204923 
	C72.840378,10.571576 73.143845,9.268280 73.582016,8.022585 
	C73.716705,8.080186 73.991928,8.180687 73.991928,8.180687 
	C73.991928,8.180687 74.019585,8.624312 74.059464,8.843590 
	C74.404106,10.460259 74.708870,11.857652 75.040436,13.617519 
z"/>
<path fill="#35151F" opacity="1.000000" stroke="none" 
	d="
M51.891884,16.034880 
	C51.585278,14.283876 51.278667,12.532874 50.898468,10.382010 
	C51.165611,9.202010 51.506344,8.421873 52.210617,7.158770 
	C53.369133,6.009634 54.164108,5.343465 54.959084,4.677298 
	C56.857231,4.898086 58.755379,5.118874 61.172977,5.400083 
	C61.324036,6.091912 61.673313,7.691553 61.973686,9.978055 
	C61.883781,11.733636 61.842781,12.802354 61.430000,13.838001 
	C60.809494,13.808882 60.560768,13.812833 60.067070,13.737926 
	C59.650684,13.651754 59.479275,13.644442 59.136032,13.511311 
	C58.701107,13.600027 58.438007,13.814561 58.094296,14.237986 
	C58.013683,14.446876 57.822857,14.851994 57.596317,14.910824 
	C57.369778,14.969654 56.966293,15.206995 56.619339,15.219132 
	C55.216347,15.483315 54.160313,15.735360 52.800987,15.994389 
	C52.295757,16.012541 52.093819,16.023710 51.891884,16.034880 
z"/>
<path fill="#E3E4E4" opacity="1.000000" stroke="none" 
	d="
M54.691162,4.476579 
	C54.164108,5.343465 53.369133,6.009634 52.257713,6.829174 
	C50.833477,4.271142 51.033566,4.052940 54.691162,4.476579 
z"/>
<path fill="#E2DCDA" opacity="1.000000" stroke="none" 
	d="
M61.801781,13.871073 
	C61.842781,12.802354 61.883781,11.733636 62.045185,10.325003 
	C62.165592,9.985089 62.565613,9.997333 62.778946,10.365732 
	C63.002331,11.477315 63.012383,12.220500 62.974743,13.352896 
	C62.857948,13.994256 62.788841,14.246404 62.719738,14.498551 
	C62.719738,14.498551 62.315380,14.234070 62.103836,14.039097 
	C61.892288,13.844125 61.801781,13.871073 61.801781,13.871073 
z"/>
<path fill="#818190" opacity="1.000000" stroke="none" 
	d="
M63.022438,12.963684 
	C63.012383,12.220500 63.002331,11.477315 62.979023,10.362624 
	C63.143299,9.719267 63.338127,9.460439 63.758587,9.111294 
	C63.966923,9.007957 63.952797,9.032584 63.962120,9.401226 
	C63.655106,10.834474 63.338772,11.899079 63.022438,12.963684 
z"/>
<path fill="#8E8797" opacity="1.000000" stroke="none" 
	d="
M64.883774,5.121714 
	C64.916817,5.816607 64.949867,6.511500 64.712921,7.590767 
	C64.442932,7.975141 63.989933,8.007939 63.989937,8.007939 
	C64.004517,7.298679 64.019089,6.589419 64.272446,5.490519 
	C64.511223,5.100878 64.883774,5.121714 64.883774,5.121714 
z"/>
<path fill="#CEC7D3" opacity="1.000000" stroke="none" 
	d="
M64.940079,4.841201 
	C64.883774,5.121714 64.511223,5.100878 64.329163,5.140524 
	C64.274734,4.857106 64.402367,4.534042 64.773560,4.099914 
	C65.010208,4.179461 65.003296,4.370074 64.940079,4.841201 
z"/>
<path fill="#BACCD1" opacity="1.000000" stroke="none" 
	d="
M63.958878,8.260145 
	C63.989933,8.007939 64.442932,7.975141 64.665970,7.936981 
	C64.930977,8.078739 64.972954,8.258657 64.766586,8.743095 
	C64.329758,9.042604 64.141273,9.037594 63.952797,9.032584 
	C63.952797,9.032584 63.966923,9.007957 63.980141,9.012143 
	C63.971516,8.848337 63.949669,8.680344 63.958878,8.260145 
z"/>
<path fill="#5192B4" opacity="1.000000" stroke="none" 
	d="
M85.641602,43.009659 
	C85.957664,43.038940 85.978363,43.490173 85.985886,43.715355 
	C85.352089,43.807022 84.710770,43.673512 84.063522,43.247887 
	C84.480247,42.963974 84.902893,42.972176 85.641602,43.009659 
z"/>
<path fill="#5192B4" opacity="1.000000" stroke="none" 
	d="
M80.001472,48.998856 
	C80.121735,49.134258 80.240524,49.270805 80.359314,49.407356 
	C80.275536,49.361031 80.191765,49.314701 80.052963,49.135525 
	C79.997948,49.002674 80.000000,49.000000 80.001472,48.998856 
z"/>
<path fill="#543127" opacity="1.000000" stroke="none" 
	d="
M56.100132,76.047867 
	C56.100132,76.047867 56.411221,76.074890 56.726604,76.297318 
	C57.362114,76.659447 57.682236,76.799164 58.002361,76.938873 
	C58.473248,78.034554 58.944134,79.130226 59.638145,80.454376 
	C59.144337,81.418686 58.427399,82.154533 57.422260,83.004257 
	C56.351402,82.807007 55.568752,82.495888 54.485760,82.100899 
	C54.152336,81.805275 54.119255,81.593513 54.027119,81.065155 
	C53.990925,80.344734 54.013783,79.940895 54.410423,79.188873 
	C55.222851,77.909744 55.661491,76.978806 56.100132,76.047867 
z"/>
<path fill="#9C7766" opacity="1.000000" stroke="none" 
	d="
M53.743690,83.185295 
	C53.866604,83.814705 53.730442,84.624634 53.348289,85.610031 
	C53.229740,84.978935 53.357178,84.172379 53.743690,83.185295 
z"/>
<path fill="#7F9EB2" opacity="1.000000" stroke="none" 
	d="
M85.585388,29.813551 
	C85.456978,31.236380 85.093895,32.549442 84.374985,33.937370 
	C84.008369,33.827263 83.997581,33.642292 83.918625,32.883316 
	C83.885307,31.213070 83.920158,30.116827 83.955002,29.020586 
	C84.420235,29.248320 84.885475,29.476051 85.585388,29.813551 
z"/>
<path fill="#180E13" opacity="1.000000" stroke="none" 
	d="
M83.615273,29.028856 
	C83.920158,30.116827 83.885307,31.213070 83.905060,32.605721 
	C83.227753,32.942158 82.495842,32.982189 81.399948,32.972591 
	C81.004684,32.191360 80.973389,31.459757 80.909180,30.363335 
	C81.676018,29.678053 82.475784,29.357590 83.615273,29.028856 
z"/>
<path fill="#C5D1D7" opacity="1.000000" stroke="none" 
	d="
M28.995579,4.005883 
	C30.062647,4.006975 31.129717,4.008067 32.596859,4.011615 
	C33.484276,5.529934 33.971619,7.045798 34.706589,9.098511 
	C35.075291,10.028552 35.196358,10.421745 34.992691,10.883612 
	C34.447590,10.967283 34.227222,10.982283 33.722034,11.004017 
	C32.951847,11.249563 32.466480,11.488375 31.729580,11.787426 
	C31.310150,11.886928 31.142250,11.926190 30.974352,11.965454 
	C30.312950,9.587560 29.651546,7.209666 28.995090,4.415874 
	C29.000036,3.999976 28.995579,4.005883 28.995579,4.005883 
z"/>
<path fill="#2D242A" opacity="1.000000" stroke="none" 
	d="
M35.317429,10.814939 
	C35.196358,10.421745 35.075291,10.028552 34.959648,9.327040 
	C35.992485,10.431353 37.019890,11.843987 37.991798,13.617097 
	C37.215141,13.658227 36.493984,13.338881 35.438225,12.785325 
	C35.103615,12.551114 35.106407,12.180375 35.339058,12.081955 
	C35.486950,11.594003 35.402187,11.204471 35.317429,10.814939 
z"/>
<path fill="#B2B1AB" opacity="1.000000" stroke="none" 
	d="
M30.947124,12.293217 
	C31.142250,11.926190 31.310150,11.886928 31.747265,12.169615 
	C32.382278,13.369637 32.748074,14.247711 33.113873,15.125786 
	C32.070812,17.203592 31.027752,19.281399 29.615503,21.723927 
	C28.523012,22.968204 27.799711,23.847757 26.976078,24.941967 
	C26.717121,25.439163 26.485329,25.634933 26.118961,25.697256 
	C26.057552,25.650578 25.904379,25.632193 25.885221,25.330088 
	C25.319069,24.016418 24.772076,23.004856 24.225080,21.993292 
	C25.973839,19.836504 27.722599,17.679718 29.664150,15.265882 
	C30.211260,14.212882 30.565578,13.416931 30.947124,12.293217 
z"/>
<path fill="#A7B6B5" opacity="1.000000" stroke="none" 
	d="
M25.006533,12.832123 
	C23.493504,12.890639 21.969875,12.734645 20.170734,12.312244 
	C21.303528,12.063881 22.711834,12.081923 24.539228,12.144838 
	C24.958319,12.189714 24.995934,12.617610 25.006533,12.832123 
z"/>
<path fill="#C5D1D7" opacity="1.000000" stroke="none" 
	d="
M29.003090,3.997586 
	C28.883738,3.864801 28.761332,3.734406 28.638926,3.604011 
	C28.720940,3.650238 28.802956,3.696465 28.940273,3.874287 
	C28.995579,4.005883 29.000036,3.999976 29.003090,3.997586 
z"/>
<path fill="#A6D6EF" opacity="1.000000" stroke="none" 
	d="
M73.897888,7.804607 
	C73.991928,8.180687 73.716705,8.080186 73.259041,8.149737 
	C72.292809,9.428528 71.784233,10.637767 71.249008,11.861688 
	C71.222351,11.876370 71.168617,11.904955 71.168617,11.904955 
	C70.955475,11.906148 70.742340,11.907340 70.247620,11.480664 
	C69.932953,9.692338 69.899872,8.331880 69.866776,6.971421 
	C70.252022,5.894784 70.637260,4.818148 71.296463,3.364520 
	C71.740150,2.955247 71.909889,2.922965 72.079620,2.890684 
	C72.079620,2.890684 72.507195,2.929499 72.719246,2.959719 
	C73.222145,4.469469 73.512993,5.948998 73.897888,7.804607 
z"/>
<path fill="#C8F3FA" opacity="1.000000" stroke="none" 
	d="
M69.544815,7.016121 
	C69.899872,8.331880 69.932953,9.692338 69.929001,11.454317 
	C69.553276,12.593087 69.214592,13.330336 68.773857,14.372643 
	C68.671814,14.677702 68.227669,14.777105 67.804550,14.768943 
	C66.913399,14.897148 66.445366,15.033516 65.977341,15.169886 
	C65.193748,15.089187 64.410156,15.008487 63.246773,15.044052 
	C62.866982,15.160316 62.720303,14.843194 62.720020,14.670873 
	C62.788841,14.246404 62.857948,13.994256 62.974747,13.352896 
	C63.338772,11.899079 63.655106,10.834474 63.962120,9.401226 
	C64.141273,9.037594 64.329758,9.042604 64.800186,9.018174 
	C66.462364,8.346096 67.842598,7.703459 69.544815,7.016121 
z"/>
<path fill="#9BACBC" opacity="1.000000" stroke="none" 
	d="
M71.971329,2.690059 
	C71.909889,2.922965 71.740150,2.955247 71.311783,2.991944 
	C71.043846,2.821163 71.034538,2.645967 71.078888,2.213037 
	C71.422104,2.070369 71.665604,2.248413 71.971329,2.690059 
z"/>
<path fill="#261D29" opacity="1.000000" stroke="none" 
	d="
M4.789027,11.003925 
	C5.328110,11.228171 5.597168,11.447283 5.954552,11.917915 
	C5.579833,12.456080 5.116787,12.742724 4.355677,13.067322 
	C4.036767,12.642441 4.015923,12.179608 3.987233,11.369797 
	C4.159259,11.014810 4.339130,11.006801 4.789027,11.003925 
z"/>
<path fill="#152C50" opacity="1.000000" stroke="none" 
	d="
M53.908409,61.926601 
	C54.266190,65.985786 54.623974,70.044968 54.739647,74.761322 
	C54.279594,76.273735 54.061646,77.128983 53.843697,77.984230 
	C51.796059,77.633820 49.748417,77.283409 47.344269,76.474342 
	C47.264412,73.950981 47.584919,71.890930 47.805084,69.820221 
	C48.015129,67.844711 48.375610,65.675392 45.157188,66.107841 
	C45.118256,65.928978 45.079327,65.750114 44.991455,65.301224 
	C46.519623,64.536629 48.096733,64.042061 50.091995,63.251137 
	C50.510147,62.954777 50.980495,62.843483 51.293381,62.859470 
	C52.373646,62.559170 53.141029,62.242886 53.908409,61.926601 
z"/>
<path fill="#8C9EA8" opacity="1.000000" stroke="none" 
	d="
M34.984142,69.170242 
	C35.476738,68.754776 35.913021,68.226990 36.473129,67.946190 
	C37.823421,67.269257 39.231628,66.707855 40.616482,66.099861 
	C41.083927,67.473564 41.551373,68.847275 42.106247,70.628769 
	C41.974216,72.348328 42.033852,73.794083 41.480984,74.945816 
	C40.041603,77.944290 36.760536,77.668678 34.585930,74.492752 
	C34.536491,74.420547 34.298267,74.420692 34.179581,74.467285 
	C34.032276,74.525108 33.917820,74.666611 33.490532,74.933228 
	C33.105392,73.972374 33.018902,72.850266 32.968380,71.402260 
	C33.004349,71.076370 33.111015,70.702644 33.420982,70.425743 
	C34.148678,69.822639 34.566410,69.496437 34.984142,69.170242 
z"/>
<path fill="#0F558E" opacity="1.000000" stroke="none" 
	d="
M45.112137,66.552834 
	C48.375610,65.675392 48.015129,67.844711 47.805084,69.820221 
	C47.584919,71.890930 47.264412,73.950981 46.939243,76.431747 
	C46.265747,75.505806 45.318783,74.215126 45.094738,72.809227 
	C44.793449,70.918633 45.049984,68.939156 45.112137,66.552834 
z"/>
<path fill="#724734" opacity="1.000000" stroke="none" 
	d="
M53.917458,78.221161 
	C54.061646,77.128983 54.279594,76.273735 54.748520,75.200516 
	C55.208130,75.258553 55.416759,75.534554 55.862762,75.929214 
	C55.661491,76.978806 55.222851,77.909744 54.454971,78.888245 
	C54.125736,78.935799 53.991222,78.458084 53.917458,78.221161 
z"/>
<path fill="#452119" opacity="1.000000" stroke="none" 
	d="
M26.000172,35.003353 
	C26.029970,34.503883 26.059771,34.004417 26.402973,33.232361 
	C26.898523,32.996727 27.080667,33.033676 27.415077,33.218887 
	C27.799049,33.545380 27.976522,33.767075 28.176790,34.252480 
	C28.418064,34.763523 28.664337,34.939693 28.930302,35.320656 
	C28.830185,35.853741 28.792400,36.067394 28.534901,36.437614 
	C28.492781,37.381706 28.670372,38.169235 29.126291,39.167545 
	C29.614872,40.276825 29.825125,41.175316 30.075382,42.059937 
	C30.115387,42.046062 30.169695,42.111038 30.169695,42.111038 
	C29.328232,41.835819 28.486769,41.560604 27.346111,41.134399 
	C27.046915,40.983406 27.026720,40.491669 27.017981,39.910667 
	C26.990707,38.883278 26.972172,38.436886 26.953636,37.990498 
	C26.947582,37.545395 26.941530,37.100292 26.831671,36.107521 
	C26.543766,35.297943 26.301203,35.112442 26.000172,35.003353 
z"/>
<path fill="#7B614F" opacity="1.000000" stroke="none" 
	d="
M32.387760,43.891190 
	C31.847130,43.973965 31.306499,44.056740 30.363100,44.231892 
	C30.006809,43.831299 30.053286,43.338333 30.134729,42.478203 
	C30.169695,42.111038 30.115387,42.046062 30.350849,41.918900 
	C31.037403,40.864552 31.488497,39.937366 32.203403,39.008301 
	C32.643044,39.004208 32.818871,39.001984 33.044533,39.354713 
	C33.086117,40.186363 33.077862,40.663048 32.888596,41.173210 
	C32.620632,41.290367 32.446968,41.397465 32.462116,41.453564 
	C32.520023,41.667942 32.638691,41.865906 32.711777,42.148041 
	C32.688881,42.226078 32.793903,42.350292 32.803520,42.649242 
	C32.878201,43.140087 32.943260,43.331982 32.924660,43.622143 
	C32.841003,43.720409 32.387760,43.891190 32.387760,43.891190 
z"/>
<path fill="#130508" opacity="1.000000" stroke="none" 
	d="
M35.112068,62.363621 
	C35.679806,62.369072 36.140244,62.678329 36.600681,62.987587 
	C36.298080,63.278221 35.995483,63.568855 35.421207,63.897869 
	C35.101276,63.513309 35.053024,63.090366 35.112068,62.363621 
z"/>
<path fill="#221A1E" opacity="1.000000" stroke="none" 
	d="
M33.069607,41.139736 
	C33.077862,40.663048 33.086117,40.186363 33.046974,38.982025 
	C32.975201,36.497585 32.950821,34.740791 32.872589,32.756847 
	C32.719322,32.211456 32.517040,31.985174 32.202568,31.487234 
	C32.207413,30.397329 32.221573,29.671040 32.439461,28.743362 
	C32.777203,27.989100 32.911209,27.436222 33.045216,26.883345 
	C33.763519,27.514093 34.481823,28.144842 35.435913,28.934067 
	C36.793064,33.135918 37.914433,37.179298 39.077431,41.610901 
	C39.072762,43.350124 39.026451,44.701122 38.972748,46.453316 
	C38.070744,46.793926 37.176140,46.733345 36.000153,46.087292 
	C35.354885,45.338612 34.990997,45.175404 34.627113,45.012192 
	C34.627113,45.012192 34.414635,45.079697 34.288826,44.755878 
	C34.122250,43.637352 34.081482,42.842644 33.722183,42.095375 
	C33.200401,42.211975 32.997150,42.281136 32.793903,42.350292 
	C32.793903,42.350292 32.688881,42.226078 32.823280,41.924980 
	C32.957680,41.623882 33.069607,41.139736 33.069607,41.139736 
z"/>
<path fill="#7E736F" opacity="1.000000" stroke="none" 
	d="
M34.040714,42.047935 
	C34.081482,42.842644 34.122250,43.637352 34.177856,44.745338 
	C33.500675,44.916992 32.808659,44.775368 32.252205,44.262466 
	C32.387760,43.891190 32.841003,43.720409 33.147648,43.408485 
	C33.649769,42.747017 33.845242,42.397476 34.040714,42.047935 
z"/>
<path fill="#4C3A34" opacity="1.000000" stroke="none" 
	d="
M34.645794,45.142284 
	C34.990997,45.175404 35.354885,45.338612 35.832687,45.785240 
	C35.733791,45.980415 35.520969,45.892170 34.987846,45.669571 
	C34.667545,45.535210 34.664474,45.272377 34.645794,45.142284 
z"/>
<path fill="#8D6F5A" opacity="1.000000" stroke="none" 
	d="
M34.797157,69.058853 
	C34.566410,69.496437 34.148678,69.822639 33.464775,70.236412 
	C33.358421,69.943901 33.518242,69.563828 33.937958,68.995819 
	C34.197861,68.807892 34.610176,68.947464 34.797157,69.058853 
z"/>
<path fill="#5F3927" opacity="1.000000" stroke="none" 
	d="
M60.907333,64.586197 
	C58.845757,63.361320 56.851280,61.730373 54.611786,59.719093 
	C54.532295,58.460911 54.697830,57.583065 54.867413,56.355270 
	C54.258121,54.986103 53.644775,53.966873 53.031429,52.947647 
	C53.010693,52.519936 52.989960,52.092220 53.035858,50.990257 
	C54.073669,48.586983 55.044853,46.857956 56.016037,45.128929 
	C58.513393,45.075058 61.024445,44.860279 63.499260,45.071053 
	C64.189674,45.129848 64.773003,46.445953 65.290070,47.526417 
	C63.774593,53.305080 62.374516,58.742599 60.907333,64.586197 
z"/>
<path fill="#40231E" opacity="1.000000" stroke="none" 
	d="
M55.862759,44.865593 
	C55.044853,46.857956 54.073669,48.586983 53.018860,50.669544 
	C51.759377,50.862782 50.583515,50.702484 49.276798,50.524345 
	C49.931477,48.314114 50.461334,46.525276 50.997696,44.356544 
	C51.443935,43.986309 51.883671,43.995968 52.674110,44.264397 
	C53.179356,44.776360 53.333897,45.029549 53.488438,45.282738 
	C53.667572,44.879623 53.846710,44.476513 54.025845,44.073399 
	C54.587055,44.249687 55.148270,44.425976 55.862759,44.865593 
z"/>
<path fill="#A0411C" opacity="1.000000" stroke="none" 
	d="
M50.736130,29.125986 
	C50.804920,31.175276 50.601997,33.336788 50.666969,35.738159 
	C51.905552,36.372177 52.876244,36.766338 53.900108,37.490669 
	C52.273048,37.531216 50.592804,37.241596 48.545895,36.899853 
	C47.807487,35.168941 47.435753,33.490162 47.148792,31.441565 
	C47.629299,30.777109 48.025036,30.482470 48.647907,30.087751 
	C49.404835,29.737850 49.934628,29.488029 50.736130,29.125986 
z"/>
<path fill="#341A17" opacity="1.000000" stroke="none" 
	d="
M53.765244,44.054386 
	C53.846710,44.476513 53.667572,44.879623 53.488438,45.282738 
	C53.333897,45.029549 53.179356,44.776360 53.003479,44.284073 
	C53.156315,44.041771 53.330479,44.038570 53.765244,44.054386 
z"/>
<path fill="#8AAABC" opacity="1.000000" stroke="none" 
	d="
M77.528061,35.543320 
	C77.478546,35.571709 77.577583,35.514931 77.528061,35.543320 
z"/>
<path fill="#8AAABC" opacity="1.000000" stroke="none" 
	d="
M75.473495,37.456467 
	C75.522827,37.428474 75.424171,37.484463 75.473495,37.456467 
z"/>
<path fill="#A08879" opacity="1.000000" stroke="none" 
	d="
M27.076408,24.727312 
	C27.799711,23.847757 28.523012,22.968204 29.554203,22.073509 
	C29.918575,22.436251 29.975060,22.814131 29.977863,23.825089 
	C29.889574,24.688698 29.854967,24.919228 29.548630,25.093838 
	C29.094818,25.004229 28.912735,24.970541 28.484276,24.940079 
	C28.237900,24.943302 27.755798,25.045395 27.578873,24.980995 
	C27.401945,24.916595 27.076408,24.727312 27.076408,24.727312 
z"/>
<path fill="#B5BCC4" opacity="1.000000" stroke="none" 
	d="
M33.318657,15.123623 
	C32.748074,14.247711 32.382278,13.369637 31.998796,12.109375 
	C32.466480,11.488375 32.951847,11.249563 33.724571,11.222428 
	C34.011925,11.434105 34.063030,11.867794 33.807915,11.988497 
	C33.701004,12.685384 33.849213,13.261569 33.997421,13.837754 
	C33.995647,14.066042 33.993877,14.294331 33.957920,14.865406 
	C33.923737,15.208194 33.523441,15.121459 33.318657,15.123623 
z"/>
<path fill="#D2BFAF" opacity="1.000000" stroke="none" 
	d="
M29.820358,25.149757 
	C29.854967,24.919228 29.889574,24.688698 29.986540,24.112114 
	C30.806152,24.095280 31.563408,24.424498 31.873009,24.953350 
	C31.211910,25.428587 30.998470,25.704193 30.648777,25.910364 
	C30.512524,25.840929 30.207207,25.821896 30.109409,25.654484 
	C30.011614,25.487074 29.820358,25.149757 29.820358,25.149757 
z"/>
<path fill="#080205" opacity="1.000000" stroke="none" 
	d="
M32.965450,26.648394 
	C32.911209,27.436222 32.777203,27.989100 32.353142,28.368786 
	C32.057205,27.447996 32.051319,26.700394 32.036903,25.961411 
	C32.028374,25.970028 32.052628,25.948862 32.052628,25.948862 
	C32.419941,25.943037 32.697628,26.097897 32.965450,26.648394 
z"/>
<path fill="#080205" opacity="1.000000" stroke="none" 
	d="
M30.785030,25.979799 
	C30.998470,25.704193 31.211910,25.428587 31.698029,25.157576 
	C31.970705,25.162169 32.026131,25.554201 32.039379,25.751532 
	C32.052628,25.948862 32.028374,25.970028 31.724174,26.081551 
	C31.208330,26.121983 30.996681,26.050892 30.785030,25.979799 
z"/>
<path fill="#7E5D4B" opacity="1.000000" stroke="none" 
	d="
M50.980492,62.843483 
	C50.980495,62.843483 50.510147,62.954777 50.279755,63.027576 
	C49.442928,62.582954 48.836494,62.065533 48.107216,61.271461 
	C49.122528,59.715466 50.260685,58.436111 51.692970,57.390831 
	C52.019447,58.075214 52.051792,58.525528 52.031555,59.312057 
	C51.646141,60.713345 51.313316,61.778412 50.980492,62.843483 
z"/>
<path fill="#201012" opacity="1.000000" stroke="none" 
	d="
M52.084141,58.975842 
	C52.051792,58.525528 52.019447,58.075214 52.005630,57.285072 
	C52.330448,55.843250 52.636734,54.741257 52.987228,53.293453 
	C53.644775,53.966873 54.258121,54.986103 54.629173,56.547531 
	C53.619305,57.718437 52.851723,58.347137 52.084141,58.975842 
z"/>
<path fill="#66140C" opacity="1.000000" stroke="none" 
	d="
M51.911522,16.359966 
	C52.093819,16.023710 52.295757,16.012541 52.879509,16.248804 
	C53.457249,16.986042 53.653183,17.475847 53.849117,17.965652 
	C53.447174,17.975832 53.045231,17.986013 52.342030,17.982182 
	C52.004234,17.540464 51.967697,17.112759 51.911522,16.359966 
z"/>
<path fill="#837E73" opacity="1.000000" stroke="none" 
	d="
M34.135750,13.623318 
	C33.849213,13.261569 33.701004,12.685384 34.068535,12.067175 
	C34.758320,12.076891 34.932362,12.128633 35.106407,12.180375 
	C35.106407,12.180375 35.103615,12.551114 35.138435,12.733706 
	C34.873535,13.080492 34.573807,13.244686 34.135750,13.623318 
z"/>
<path fill="#A14D2C" opacity="1.000000" stroke="none" 
	d="
M54.165138,18.007650 
	C53.653183,17.475847 53.457249,16.986042 53.182796,16.241821 
	C54.160313,15.735360 55.216347,15.483315 56.627319,15.515596 
	C56.986023,16.198790 56.989788,16.597658 56.743958,17.113892 
	C56.033752,17.533653 55.573151,17.836046 55.112549,18.138439 
	C54.902088,18.108843 54.691624,18.079245 54.165138,18.007650 
z"/>
<path fill="#7A2B1A" opacity="1.000000" stroke="none" 
	d="
M55.086903,18.339569 
	C55.573151,17.836046 56.033752,17.533653 57.056084,17.249571 
	C58.486065,17.518600 59.354309,17.769320 60.222557,18.020039 
	C60.222557,18.020041 60.143089,18.392891 60.115395,18.580961 
	C59.908886,18.819668 59.730068,18.870304 58.989918,18.990301 
	C57.955288,19.346329 57.481995,19.632994 57.008701,19.919659 
	C56.468887,19.751566 55.929073,19.583471 55.220093,19.180729 
	C55.050926,18.946079 55.061256,18.540697 55.086903,18.339569 
z"/>
<path fill="#271014" opacity="1.000000" stroke="none" 
	d="
M15.158003,35.047676 
	C15.552409,34.717789 16.033312,34.636845 16.514217,34.555901 
	C16.482328,34.941147 16.450441,35.326397 16.210472,35.865669 
	C15.749758,35.778667 15.497129,35.537643 15.158003,35.047676 
z"/>
<path fill="#180D14" opacity="1.000000" stroke="none" 
	d="
M56.521355,28.540709 
	C56.476185,28.565807 56.566521,28.515610 56.521355,28.540709 
z"/>
<path fill="#A6D6EF" opacity="1.000000" stroke="none" 
	d="
M72.041061,12.534972 
	C72.165268,12.852284 72.202690,13.179519 72.103233,13.760292 
	C72.053131,14.003909 71.944283,14.001764 71.896255,13.991151 
	C71.638580,13.535629 71.428940,13.090721 71.193954,12.275384 
	C71.168617,11.904955 71.222351,11.876370 71.462013,12.008379 
	C71.814804,12.271917 71.927933,12.403445 72.041061,12.534972 
z"/>
<path fill="#C5D9E3" opacity="1.000000" stroke="none" 
	d="
M66.134125,15.382105 
	C66.445366,15.033516 66.913399,14.897148 67.590591,14.846472 
	C67.296806,15.152884 66.793854,15.373606 66.134125,15.382105 
z"/>
<path fill="#983A17" opacity="1.000000" stroke="none" 
	d="
M57.274292,19.953407 
	C57.481995,19.632994 57.955288,19.346329 58.718407,19.053518 
	C58.989624,19.396538 58.832825,19.664957 58.306580,19.918690 
	C57.896851,19.985554 57.718369,19.986357 57.274292,19.953407 
z"/>
<path fill="#86432D" opacity="1.000000" stroke="none" 
	d="
M60.497963,17.845383 
	C59.354309,17.769320 58.486065,17.518600 57.305687,17.132202 
	C56.989788,16.597658 56.986023,16.198790 56.974274,15.503459 
	C56.966293,15.206995 57.369778,14.969654 57.770187,15.134087 
	C58.884415,14.804606 59.598225,14.310695 60.312038,13.816783 
	C60.560768,13.812833 60.809494,13.808882 61.430000,13.838001 
	C61.801781,13.871073 61.892288,13.844125 61.924099,13.877670 
	C61.561729,15.164385 61.167549,16.417555 60.497963,17.845383 
z"/>
<path fill="#180D14" opacity="1.000000" stroke="none" 
	d="
M60.750389,19.070526 
	C60.984165,19.153776 60.991142,19.583586 60.994621,19.798611 
	C60.676586,19.823359 60.355072,19.633083 60.026962,19.219091 
	C60.020370,18.995377 60.516613,18.987274 60.750389,19.070526 
z"/>
<path fill="#88634C" opacity="1.000000" stroke="none" 
	d="
M58.003708,76.697861 
	C57.682236,76.799164 57.362114,76.659447 56.882732,76.298096 
	C57.074894,75.925179 57.426311,75.773911 57.898354,75.798828 
	C58.018982,75.975006 58.005054,76.456841 58.003708,76.697861 
z"/>
<path fill="#475A69" opacity="1.000000" stroke="none" 
	d="
M52.031555,59.312057 
	C52.851723,58.347137 53.619305,57.718437 54.625122,56.897476 
	C54.697830,57.583065 54.532295,58.460911 54.283203,59.665474 
	C54.133987,60.422680 54.068333,60.853165 53.955544,61.605125 
	C53.141029,62.242886 52.373646,62.559170 51.293381,62.859470 
	C51.313316,61.778412 51.646141,60.713345 52.031555,59.312057 
z"/>
<path fill="#271014" opacity="1.000000" stroke="none" 
	d="
M24.042837,22.240644 
	C24.772076,23.004856 25.319069,24.016418 25.648951,25.575390 
	C25.265930,26.753817 25.100023,27.384836 24.934116,28.015854 
	C23.535639,28.320463 22.137163,28.625071 20.368996,28.964569 
	C19.999302,28.999458 19.975376,28.976667 19.975376,28.976667 
	C20.022142,26.788460 20.068909,24.600250 19.975628,22.084690 
	C22.021173,17.351948 22.451847,22.613953 24.042837,22.240644 
z"/>
<path fill="#9B5724" opacity="1.000000" stroke="none" 
	d="
M25.219805,28.196287 
	C25.100023,27.384836 25.265930,26.753817 25.668108,25.877495 
	C25.904379,25.632193 26.057552,25.650578 26.221573,26.024685 
	C26.950603,26.745399 27.515615,27.092009 28.065424,27.441917 
	C28.050222,27.445215 28.017923,27.458035 28.031956,27.819052 
	C28.314322,29.075760 28.582655,29.971453 28.564224,30.966251 
	C27.939245,31.733780 27.601028,32.402203 27.262812,33.070621 
	C27.080667,33.033676 26.898523,32.996727 26.456326,32.860718 
	C26.196274,32.761662 26.097107,32.378105 26.043137,31.938328 
	C25.966255,31.329845 25.943340,31.161140 25.920425,30.992434 
	C25.782116,30.120529 25.643805,29.248623 25.219805,28.196287 
z"/>
<path fill="#271014" opacity="1.000000" stroke="none" 
	d="
M20.010826,29.011223 
	C19.582619,30.159016 19.142889,31.295042 18.703159,32.431068 
	C18.302160,32.240532 17.901163,32.049992 17.500166,31.859455 
	C18.121830,30.931990 18.743494,30.004526 19.670267,29.026863 
	C19.975376,28.976667 19.999302,28.999458 20.010826,29.011223 
z"/>
<path fill="#271014" opacity="1.000000" stroke="none" 
	d="
M14.013628,27.491604 
	C14.402085,28.060358 14.497412,28.625164 14.592739,29.189972 
	C14.192058,29.184513 13.791377,29.179054 13.390696,29.173595 
	C13.500630,28.611616 13.610564,28.049639 14.013628,27.491604 
z"/>
<path fill="#271014" opacity="1.000000" stroke="none" 
	d="
M21.354082,31.015020 
	C21.866873,30.873686 22.343784,31.004326 22.820694,31.134964 
	C22.645004,31.507456 22.469316,31.879948 22.293629,32.252441 
	C21.968487,31.930626 21.643343,31.608810 21.354082,31.015020 
z"/>
<path fill="#271014" opacity="1.000000" stroke="none" 
	d="
M17.052330,22.612701 
	C17.427048,22.200909 17.867365,22.055010 18.664078,21.968962 
	C18.386293,22.312075 17.752111,22.595337 17.052330,22.612701 
z"/>
<path fill="#271014" opacity="1.000000" stroke="none" 
	d="
M26.663921,38.037331 
	C26.972172,38.436886 26.990707,38.883278 27.008827,39.664757 
	C26.493595,39.689045 25.978779,39.378242 25.463961,39.067440 
	C25.767378,38.739681 26.070793,38.411922 26.663921,38.037331 
z"/>
<path fill="#271014" opacity="1.000000" stroke="none" 
	d="
M25.683266,31.014683 
	C25.943340,31.161140 25.966255,31.329845 25.972008,31.753454 
	C25.543447,31.846899 25.132046,31.685438 24.720644,31.523979 
	C24.962465,31.361629 25.204285,31.199280 25.683266,31.014683 
z"/>
<path fill="#271014" opacity="1.000000" stroke="none" 
	d="
M26.098772,35.210583 
	C26.301203,35.112442 26.543766,35.297943 26.813442,35.774151 
	C26.607981,35.868526 26.374098,35.678314 26.098772,35.210583 
z"/>
<path fill="#6A7693" opacity="1.000000" stroke="none" 
	d="
M72.288986,12.204923 
	C71.927933,12.403445 71.814804,12.271917 71.488663,11.993696 
	C71.784233,10.637767 72.292809,9.428528 73.124344,8.092136 
	C73.143845,9.268280 72.840378,10.571576 72.288986,12.204923 
z"/>
<path fill="#B3593B" opacity="1.000000" stroke="none" 
	d="
M60.067070,13.737926 
	C59.598225,14.310695 58.884415,14.804606 57.996727,15.075256 
	C57.822857,14.851994 58.013683,14.446876 58.385620,14.164524 
	C58.940990,13.800492 59.124424,13.718810 59.307861,13.637128 
	C59.479275,13.644442 59.650684,13.651754 60.067070,13.737926 
z"/>
<path fill="#8C4D3B" opacity="1.000000" stroke="none" 
	d="
M59.136032,13.511311 
	C59.124424,13.718810 58.940990,13.800492 58.466232,13.955634 
	C58.438007,13.814561 58.701107,13.600027 59.136032,13.511311 
z"/>
<path fill="#E9E0DA" opacity="1.000000" stroke="none" 
	d="
M35.339058,12.081955 
	C34.932362,12.128633 34.758320,12.076891 34.323654,11.946472 
	C34.063030,11.867794 34.011925,11.434105 34.009388,11.215694 
	C34.227222,10.982283 34.447590,10.967283 34.992695,10.883611 
	C35.402187,11.204471 35.486950,11.594003 35.339058,12.081955 
z"/>
<path fill="#C98B50" opacity="1.000000" stroke="none" 
	d="
M28.080626,27.438618 
	C27.515615,27.092009 26.950603,26.745399 26.282982,26.071362 
	C26.485329,25.634933 26.717121,25.439163 26.976078,24.941967 
	C27.076408,24.727312 27.401945,24.916595 27.611502,25.206541 
	C27.821058,25.496487 27.945478,25.935308 28.012436,26.308153 
	C28.079803,26.933537 28.080214,27.186077 28.080626,27.438618 
z"/>
<path fill="#11070B" opacity="1.000000" stroke="none" 
	d="
M31.939590,39.010178 
	C31.488497,39.937366 31.037403,40.864552 30.310844,41.932777 
	C29.825125,41.175316 29.614872,40.276825 29.182667,38.832901 
	C28.892017,37.618664 28.823315,36.949856 28.754614,36.281048 
	C28.792400,36.067394 28.830185,35.853741 28.943569,35.311142 
	C29.019169,34.982201 29.044018,34.960609 29.320168,35.038960 
	C30.060577,35.445625 30.524837,35.773941 30.987686,36.418842 
	C31.304049,37.493679 31.621819,38.251926 31.939590,39.010178 
z"/>
<path fill="#BD9F81" opacity="1.000000" stroke="none" 
	d="
M27.415077,33.218887 
	C27.601028,32.402203 27.939245,31.733780 28.778294,31.246206 
	C29.936499,31.611826 30.593870,31.796600 31.494070,31.968374 
	C31.736900,31.955376 32.211891,31.850851 32.211891,31.850851 
	C32.517040,31.985174 32.719322,32.211456 32.195850,32.834431 
	C31.157854,33.323418 30.742743,33.507668 30.333981,33.720394 
	C30.340332,33.748875 30.171906,33.991753 29.855562,33.977898 
	C29.329256,33.985901 29.119291,34.007759 28.706757,33.974174 
	C28.504185,33.918728 28.099764,34.032238 28.099764,34.032238 
	C27.976522,33.767075 27.799049,33.545380 27.415077,33.218887 
z"/>
<path fill="#784834" opacity="1.000000" stroke="none" 
	d="
M28.534901,36.437614 
	C28.823315,36.949856 28.892017,37.618664 28.904343,38.622116 
	C28.670372,38.169235 28.492781,37.381706 28.534901,36.437614 
z"/>
<path fill="#11070B" opacity="1.000000" stroke="none" 
	d="
M28.176790,34.252480 
	C28.099764,34.032238 28.504185,33.918728 28.731541,34.208149 
	C28.958897,34.497570 29.044018,34.960609 29.044018,34.960609 
	C29.044018,34.960609 29.019169,34.982201 29.005901,34.991714 
	C28.664337,34.939693 28.418064,34.763523 28.176790,34.252480 
z"/>
<path fill="#79645A" opacity="1.000000" stroke="none" 
	d="
M30.327629,33.691917 
	C30.742743,33.507668 31.157854,33.323418 32.249702,33.061584 
	C32.950821,34.740791 32.975201,36.497585 32.997139,38.627068 
	C32.818871,39.001984 32.643044,39.004208 32.203403,39.008301 
	C31.621819,38.251926 31.304049,37.493679 30.989151,36.014992 
	C30.726368,34.859215 30.460709,34.423870 30.291351,33.836891 
	C30.387651,33.685261 30.344545,33.345543 30.344545,33.345543 
	C30.344545,33.345543 30.327631,33.691917 30.327629,33.691917 
z"/>
<path fill="#433028" opacity="1.000000" stroke="none" 
	d="
M33.722183,42.095375 
	C33.845242,42.397476 33.649769,42.747017 33.231304,43.310219 
	C32.943260,43.331982 32.878201,43.140087 32.803520,42.649242 
	C32.997150,42.281136 33.200401,42.211975 33.722183,42.095375 
z"/>
<path fill="#433028" opacity="1.000000" stroke="none" 
	d="
M32.888596,41.173210 
	C33.069607,41.139736 32.957680,41.623882 32.846176,41.846939 
	C32.638691,41.865906 32.520023,41.667942 32.462116,41.453564 
	C32.446968,41.397465 32.620632,41.290367 32.888596,41.173210 
z"/>
<path fill="#807471" opacity="1.000000" stroke="none" 
	d="
M32.202568,31.487234 
	C32.211891,31.850851 31.736900,31.955376 31.395912,31.675951 
	C31.038006,30.990898 31.021088,30.585272 31.001932,29.835873 
	C30.664509,28.662077 30.329323,27.832052 30.049648,26.707397 
	C30.139174,26.215811 30.173189,26.018854 30.207207,25.821896 
	C30.207207,25.821896 30.512524,25.840929 30.648777,25.910364 
	C30.996681,26.050892 31.208330,26.121983 31.732708,26.072933 
	C32.051319,26.700394 32.057205,27.447996 32.149410,28.570175 
	C32.221573,29.671040 32.207413,30.397329 32.202568,31.487234 
z"/>
<path fill="#5F413E" opacity="1.000000" stroke="none" 
	d="
M30.109409,25.654484 
	C30.173189,26.018854 30.139174,26.215811 29.798996,26.770710 
	C29.323816,27.428104 29.154797,27.727556 28.752653,27.869728 
	C28.352327,27.627642 28.185125,27.542837 28.017923,27.458035 
	C28.017923,27.458035 28.050222,27.445215 28.065424,27.441917 
	C28.080214,27.186077 28.079803,26.933537 28.182346,26.173885 
	C28.499342,25.463486 28.647793,25.220179 28.730652,24.936853 
	C28.912735,24.970541 29.094818,25.004229 29.548630,25.093838 
	C29.820358,25.149757 30.011614,25.487074 30.109409,25.654484 
z"/>
<path fill="#9B5724" opacity="1.000000" stroke="none" 
	d="
M28.484276,24.940079 
	C28.647793,25.220179 28.499342,25.463486 28.115387,25.801041 
	C27.945478,25.935308 27.821058,25.496487 27.788429,25.270941 
	C27.755798,25.045395 28.237900,24.943302 28.484276,24.940079 
z"/>
<path fill="#D7BDAC" opacity="1.000000" stroke="none" 
	d="
M28.031956,27.819052 
	C28.185125,27.542837 28.352327,27.627642 28.850637,28.162336 
	C29.789219,29.134699 30.396692,29.657171 31.004169,30.179644 
	C31.021088,30.585272 31.038006,30.990898 31.153084,31.688950 
	C30.593870,31.796600 29.936499,31.611826 29.065060,31.147099 
	C28.582655,29.971453 28.314322,29.075760 28.031956,27.819052 
z"/>
<path fill="#CCB9AF" opacity="1.000000" stroke="none" 
	d="
M30.195049,33.988525 
	C30.460709,34.423870 30.726368,34.859215 30.990562,35.698410 
	C30.524837,35.773941 30.060577,35.445625 29.320168,35.038960 
	C29.044018,34.960609 28.958897,34.497570 28.934113,34.263596 
	C29.119291,34.007759 29.329256,33.985901 29.861244,33.977184 
	C30.183271,33.990326 30.195049,33.988525 30.195049,33.988525 
z"/>
<path fill="#D7BDAC" opacity="1.000000" stroke="none" 
	d="
M30.291351,33.836891 
	C30.195049,33.988525 30.183271,33.990326 30.177589,33.991039 
	C30.171906,33.991753 30.340332,33.748875 30.333981,33.720398 
	C30.327631,33.691917 30.344545,33.345543 30.344545,33.345543 
	C30.344545,33.345543 30.387651,33.685261 30.291351,33.836891 
z"/>
<path fill="#0C0603" opacity="1.000000" stroke="none" 
	d="
M31.001930,29.835873 
	C30.396692,29.657171 29.789219,29.134699 29.083759,28.319618 
	C29.154797,27.727556 29.323816,27.428104 29.743488,27.065338 
	C30.329323,27.832052 30.664509,28.662077 31.001930,29.835873 
z"/>
</svg>